<?xml version="1.0" standalone="no"?>
<!DOCTYPE svg PUBLIC "-//W3C//DTD SVG 1.1//EN" "http://www.w3.org/Graphics/SVG/1.1/DTD/svg11.dtd" >
<svg xmlns="http://www.w3.org/2000/svg" xmlns:xlink="http://www.w3.org/1999/xlink" version="1.1">
<metadata>
Created by FontForge 20170731 at Fri Mar  5 17:04:58 2021
 By Aleksey,,,
Copyright (c) 2017 by atipo :. All rights reserved.
</metadata>
<defs>
<font id="Noway-Bold" horiz-adv-x="1253" >
  <font-face 
    font-family="Noway"
    font-weight="700"
    font-stretch="normal"
    units-per-em="2048"
    panose-1="2 0 8 6 0 0 0 2 0 4"
    ascent="1536"
    descent="-512"
    x-height="1139"
    cap-height="1434"
    bbox="-240 -1470 2613 2206"
    underline-thickness="102"
    underline-position="-307"
    unicode-range="U+000D-F6C3"
  />
<missing-glyph horiz-adv-x="1040" 
d="M8 0v1434h1024v-1434h-1024zM520 809l348 522h-696zM582 717l348 -522v1044zM111 195l348 522l-348 522v-1044zM172 102h696l-348 523z" />
    <glyph glyph-name="ellipsis" unicode="&#x2e;&#x2e;&#x2e;" horiz-adv-x="1669" 
d="M92 0v371h369v-371h-369zM651 0v371h369v-371h-369zM1208 0v371h369v-371h-369z" />
    <glyph glyph-name=".notdef" horiz-adv-x="1040" 
d="M8 0v1434h1024v-1434h-1024zM520 809l348 522h-696zM582 717l348 -522v1044zM111 195l348 522l-348 522v-1044zM172 102h696l-348 523z" />
    <glyph glyph-name=".null" horiz-adv-x="0" 
 />
    <glyph glyph-name=".null" horiz-adv-x="0" 
 />
    <glyph glyph-name="nonmarkingreturn" horiz-adv-x="682" 
 />
    <glyph glyph-name="CR" unicode="&#xd;" horiz-adv-x="571" 
 />
    <glyph glyph-name="space" unicode=" " horiz-adv-x="516" 
 />
    <glyph glyph-name="exclam" unicode="!" horiz-adv-x="548" 
d="M92 1434h365l-47 -955h-271zM90 0v371h369v-371h-369z" />
    <glyph glyph-name="quotedbl" unicode="&#x22;" horiz-adv-x="823" 
d="M338 860h-244l-26 574h297zM729 860h-244l-26 574h297z" />
    <glyph glyph-name="numbersign" unicode="#" horiz-adv-x="1261" 
d="M133 803l45 252h166l41 205h272l-41 -205h144l41 205h272l-41 -205h168l-45 -252h-170l-35 -180h176l-45 -252h-180l-39 -205h-272l39 205h-144l-39 -205h-272l39 205h-154l45 252h158l35 180h-164zM569 803l-34 -180h143l35 180h-144z" />
    <glyph glyph-name="dollar" unicode="$" horiz-adv-x="1120" 
d="M422 -195v187q-194 27 -387 147l117 256q241 -112 399 -112q94 0 141 39t47 98q0 46 -28.5 80t-75 53.5t-106 40.5t-121 39t-121 51t-106 75t-75 112t-28.5 161q0 169 88 273t256 133v153h272v-153q168 -30 340 -140l-141 -245q-173 102 -322 102q-81 0 -121 -29t-40 -82
q0 -33 22.5 -58.5t61 -43t88.5 -33.5t105 -35t110.5 -41.5t105.5 -58t88.5 -80t61 -112t22.5 -150.5q0 -181 -94.5 -293.5t-286.5 -142.5v-191h-272z" />
    <glyph glyph-name="percent" unicode="%" horiz-adv-x="1953" 
d="M1372 1493l-502 -1552h-288l501 1552h289zM426 1214q-25 0 -43 -15.5t-18 -43.5v-217q0 -28 18 -43.5t43 -15.5q24 0 41.5 15.5t17.5 43.5v217q0 28 -17.5 43.5t-41.5 15.5zM426 641q-155 0 -243.5 81t-88.5 232v181q0 153 88.5 234t243.5 81q154 0 240 -81t86 -234v-181
q0 -153 -85.5 -233t-240.5 -80zM1532 -16q-155 0 -243.5 81t-88.5 232v180q0 153 88.5 234.5t243.5 81.5q154 0 240 -81.5t86 -234.5v-180q0 -153 -85.5 -233t-240.5 -80zM1532 557q-25 0 -43.5 -15.5t-18.5 -43.5v-217q0 -28 18.5 -44t43.5 -16q23 0 41 16t18 44v217
q0 28 -17.5 43.5t-41.5 15.5z" />
    <glyph glyph-name="ampersand" unicode="&#x26;" horiz-adv-x="1349" 
d="M610 1161q-59 0 -91 -21.5t-32 -58.5q0 -28 13 -52.5t45 -63.5l338 -398q34 90 53 258h299q-1 -136 -40.5 -268t-94.5 -227l258 -330h-383l-68 82q-136 -98 -360 -98q-105 0 -192.5 26t-153.5 77t-103 133.5t-37 189.5q0 134 47 227.5t177 159.5q-63 78 -94 142t-31 142
q0 163 121.5 266t310.5 103q114 0 225.5 -36t190.5 -91l-117 -238q-141 76 -281 76zM385 424q0 -70 47.5 -114t124.5 -44q111 0 156 45l-242 277q-86 -41 -86 -164z" />
    <glyph glyph-name="quotesingle" unicode="'" horiz-adv-x="432" 
d="M338 860h-244l-26 574h297z" />
    <glyph glyph-name="parenleft" unicode="(" horiz-adv-x="774" 
d="M82 641q0 227 96.5 474.5t284.5 465.5l242 -160q-135 -192 -207 -398.5t-72 -381.5t72 -381.5t207 -398.5l-242 -160q-188 218 -284.5 465.5t-96.5 474.5z" />
    <glyph glyph-name="parenright" unicode=")" horiz-adv-x="774" 
d="M692 641q0 -227 -96.5 -474.5t-284.5 -465.5l-241 160q135 192 206.5 398.5t71.5 381.5t-71.5 381.5t-206.5 398.5l241 160q188 -218 284.5 -465.5t96.5 -474.5z" />
    <glyph glyph-name="asterisk" unicode="*" horiz-adv-x="948" 
d="M600 793l-127 217l-127 -217l-184 141l174 182l-236 60l76 215l207 -95l-29 240h238l-29 -240l207 95l76 -215l-236 -60l174 -182z" />
    <glyph glyph-name="plus" unicode="+" horiz-adv-x="1046" 
d="M33 485v271h350v354h279v-354h352v-271h-352v-356h-279v356h-350z" />
    <glyph glyph-name="comma" unicode="," horiz-adv-x="552" 
d="M92 0v371h369v-254q0 -134 -30 -222t-90.5 -147t-170.5 -113l-121 168q167 97 170 197h-127z" />
    <glyph glyph-name="hyphen" unicode="-" horiz-adv-x="765" 
d="M72 481v279h622v-279h-622z" />
    <glyph glyph-name="period" unicode="." horiz-adv-x="552" 
d="M92 0v371h369v-371h-369z" />
    <glyph glyph-name="slash" unicode="/" horiz-adv-x="874" 
d="M4 -162l553 1757h315l-553 -1757h-315z" />
    <glyph glyph-name="zero" unicode="0" horiz-adv-x="1220" 
d="M610 1143q-93 0 -130.5 -64.5t-37.5 -187.5v-348q0 -122 37.5 -187t130.5 -65t130.5 65t37.5 187v348q0 123 -37.5 187.5t-130.5 64.5zM610 -16q-129 0 -227 41t-158.5 115t-90.5 170.5t-30 213.5v385q0 117 30 213.5t90.5 171t158.5 115.5t227 41t227 -41t158.5 -115.5
t90.5 -171t30 -213.5v-385q0 -117 -30 -213.5t-90.5 -170.5t-158.5 -115t-227 -41z" />
    <glyph glyph-name="one" unicode="1" horiz-adv-x="1083" 
d="M35 1237l508 197h233v-1149h242v-285h-905v285h327v811l-301 -115q-8 18 -104 256z" />
    <glyph glyph-name="two" unicode="2" horiz-adv-x="1136" 
d="M549 1450q226 0 356.5 -108t130.5 -298q0 -78 -33.5 -151.5t-86.5 -131.5t-117.5 -111.5t-129 -100t-117.5 -88.5t-86.5 -84.5t-33.5 -81.5h627v-295h-977v217q0 79 34 155.5t88.5 139t120.5 122t132 112t120.5 100t88.5 96t34 90.5q0 60 -47 93.5t-127 33.5
q-151 0 -327 -110l-140 233q106 78 234 123t256 45z" />
    <glyph glyph-name="three" unicode="3" horiz-adv-x="1140" 
d="M537 276q60 0 101.5 14t61 39.5t27.5 52t8 60.5q0 78 -46.5 121t-137.5 43h-268v264h241q77 0 124.5 36.5t47.5 105.5q0 67 -38.5 106t-120.5 39q-85 0 -172.5 -30t-153.5 -74l-131 235q110 81 239 121.5t248 40.5q225 0 345 -112t120 -302q0 -74 -29.5 -147.5
t-89.5 -124.5q80 -57 117 -135.5t37 -194.5q0 -72 -17 -136t-56.5 -122t-98.5 -100t-150.5 -67t-205.5 -25q-239 0 -488 163l129 238q213 -109 357 -109z" />
    <glyph glyph-name="four" unicode="4" horiz-adv-x="1243" 
d="M1006 883v-340h170v-285h-170v-258h-324v258h-616v217l397 959h338l-375 -891h256v340h324z" />
    <glyph glyph-name="five" unicode="5" horiz-adv-x="1173" 
d="M553 276q197 0 197 195q0 87 -53.5 143t-149.5 56q-106 0 -236 -72l-174 109l43 727h813v-289h-536l-15 -219q62 24 150 24q123 0 218 -37t153 -103t87 -151.5t29 -187.5q0 -78 -16 -146.5t-55 -132t-97.5 -109t-149.5 -72.5t-206 -27q-128 0 -257 43.5t-228 122.5
l127 233q212 -107 356 -107z" />
    <glyph glyph-name="six" unicode="6" horiz-adv-x="1230" 
d="M612 272q85 0 135 53.5t50 157.5q0 203 -185 203q-101 0 -180 -92v-107q0 -105 47.5 -160t132.5 -55zM678 1159q-112 0 -179 -60t-67 -179v-46q97 93 240 93q217 0 339 -128.5t122 -355.5q0 -225 -134 -363t-387 -138q-233 0 -374.5 140.5t-141.5 364.5v367q0 102 21 191
t65 163.5t108.5 127.5t156 82.5t202.5 29.5q246 0 447 -141l-125 -238q-78 47 -145 68.5t-148 21.5z" />
    <glyph glyph-name="seven" unicode="7" horiz-adv-x="1189" 
d="M201 0l522 1141h-629v293h1002v-222l-537 -1212h-358z" />
    <glyph glyph-name="eight" unicode="8" horiz-adv-x="1226" 
d="M612 612q-190 -49 -190 -180q0 -74 52 -118t138 -44t138.5 44t52.5 118q0 131 -191 180zM612 1167q-76 0 -115.5 -33.5t-39.5 -89.5q0 -109 155 -174q156 66 156 174q0 56 -40 89.5t-116 33.5zM612 -16q-243 0 -380.5 118.5t-137.5 321.5q0 108 58.5 193.5t154.5 138.5
q-80 52 -130 128t-50 169q0 177 130 287t355 110t355.5 -110t130.5 -287q0 -93 -50 -169t-130 -128q95 -53 153.5 -138t58.5 -194q0 -203 -137.5 -321.5t-380.5 -118.5z" />
    <glyph glyph-name="nine" unicode="9" horiz-adv-x="1230" 
d="M618 1157q-85 0 -134.5 -53.5t-49.5 -157.5q0 -203 184 -203q102 0 181 93v106q0 105 -48 160t-133 55zM553 270q112 0 179 60.5t67 179.5v45q-96 -92 -240 -92q-217 0 -339 128t-122 355q0 226 134 364t386 138q233 0 375 -141t142 -365v-367q0 -128 -33.5 -234.5
t-100 -187.5t-173.5 -126t-246 -45q-246 0 -447 141l125 237q78 -47 145 -68.5t148 -21.5z" />
    <glyph glyph-name="colon" unicode=":" horiz-adv-x="552" 
d="M92 0v371h369v-371h-369zM92 711v370h369v-370h-369z" />
    <glyph glyph-name="semicolon" unicode=";" horiz-adv-x="552" 
d="M92 711v370h369v-370h-369zM92 0v371h369v-254q0 -134 -30 -222t-90.5 -147t-170.5 -113l-121 168q167 97 170 197h-127z" />
    <glyph glyph-name="less" unicode="&#x3c;" horiz-adv-x="1095" 
d="M96 528v164l903 459v-297l-516 -244l516 -243v-297z" />
    <glyph glyph-name="equal" unicode="=" horiz-adv-x="1042" 
d="M33 717v270h981v-270h-981zM33 254v270h981v-270h-981z" />
    <glyph glyph-name="greater" unicode="&#x3e;" horiz-adv-x="1095" 
d="M999 692v-164l-903 -458v297l516 243l-516 244v297z" />
    <glyph glyph-name="question" unicode="?" horiz-adv-x="1079" 
d="M272 0v371h369v-371h-369zM506 1169q-139 0 -334 -102l-117 225q223 158 465 158q241 0 364.5 -102t123.5 -291q0 -64 -21.5 -116.5t-56.5 -88t-77 -65t-84 -52t-77 -44t-56.5 -47t-21.5 -54.5v-111h-319v154q0 54 21 99t55 76t74.5 57.5t81.5 49t75 44t55 48.5t21 58
q0 51 -46.5 77.5t-125.5 26.5z" />
    <glyph glyph-name="at" unicode="@" horiz-adv-x="1626" 
d="M879 463v264q-34 39 -86 39q-78 0 -78 -98v-146q0 -98 78 -98q52 0 86 39zM737 973q53 0 95 -22t63 -52l23 68h165v-441q0 -106 82 -106q66 0 96.5 53t30.5 174q0 220 -122 341.5t-359 121.5q-234 0 -353.5 -135t-119.5 -367q0 -266 131.5 -401t388.5 -135q252 0 485 100
l68 -172q-107 -63 -257 -102t-300 -39q-358 0 -549.5 192t-191.5 557q0 155 44.5 284.5t129.5 226.5t219.5 151.5t304.5 54.5q330 0 515 -176t185 -502q0 -203 -93 -316.5t-249 -113.5q-72 0 -125.5 26t-78.5 72h-9q-30 -42 -84 -70t-122 -28q-113 0 -179.5 71t-66.5 224
v160q0 143 63 222t170 79z" />
    <glyph glyph-name="A" unicode="A" horiz-adv-x="1269" 
d="M473 1434h324l454 -1434h-356l-82 281h-356l-82 -281h-357zM524 573h221l-106 416h-8z" />
    <glyph glyph-name="B" unicode="B" horiz-adv-x="1230" 
d="M131 1434h539q229 0 349 -109.5t120 -292.5q0 -95 -45 -168t-123 -112v-9q192 -98 192 -323q0 -420 -518 -420h-514v1434zM467 594v-303h154q103 0 149.5 33t46.5 118q0 83 -45 117.5t-137 34.5h-168zM467 1143v-273h186q75 0 108.5 34t33.5 102q0 69 -33.5 103
t-108.5 34h-186z" />
    <glyph glyph-name="C" unicode="C" horiz-adv-x="1165" 
d="M84 510v414q0 244 138.5 385t406.5 141q102 0 184 -23.5t141 -68.5t100.5 -99t75.5 -126l-270 -134q-32 71 -83 109.5t-134 38.5q-110 0 -162.5 -67t-52.5 -175v-377q0 -108 53 -174.5t164 -66.5q158 0 223 149l269 -137q-25 -57 -53.5 -102t-71.5 -86t-95 -68t-124 -43
t-160 -16q-268 0 -408.5 141.5t-140.5 384.5z" />
    <glyph glyph-name="D" unicode="D" horiz-adv-x="1320" 
d="M131 1434h508q288 0 443 -175t155 -538q0 -338 -152 -529.5t-403 -191.5h-551v1434zM469 1143v-852h143q279 0 279 436q0 83 -12.5 152t-42 131t-86.5 97.5t-138 35.5h-143z" />
    <glyph glyph-name="E" unicode="E" horiz-adv-x="1120" 
d="M1010 0h-879v1434h879v-291h-539v-266h492v-291h-492v-295h539v-291z" />
    <glyph glyph-name="F" unicode="F" horiz-adv-x="1101" 
d="M471 0h-340v1434h879v-291h-539v-301h492v-291h-492v-551z" />
    <glyph glyph-name="G" unicode="G" 
d="M645 1147q-105 0 -161 -68t-56 -174v-375q0 -109 51.5 -177t161.5 -68q141 0 205 84v190h-248v272h557v-589q-44 -57 -92 -100.5t-111.5 -80.5t-145 -57t-177.5 -20q-268 0 -406.5 142t-138.5 386v412q0 243 140.5 384.5t408.5 141.5q102 0 184 -23.5t141 -68.5t101 -99
t76 -126l-265 -134q-33 70 -85 109t-140 39z" />
    <glyph glyph-name="H" unicode="H" horiz-adv-x="1343" 
d="M872 0v588h-401v-588h-340v1434h340v-553h401v553h340v-1434h-340z" />
    <glyph glyph-name="I" unicode="I" horiz-adv-x="602" 
d="M131 0v1434h340v-1434h-340z" />
    <glyph glyph-name="J" unicode="J" horiz-adv-x="870" 
d="M739 1434v-928q0 -95 -10 -166.5t-39.5 -141.5t-79.5 -114.5t-135 -72t-201 -27.5q-108 0 -233 41l22 276q132 -18 181 -18q95 0 125 51t30 168v932h340z" />
    <glyph glyph-name="K" unicode="K" horiz-adv-x="1220" 
d="M471 1434v-543h64l282 543h371l-379 -672l399 -762h-370l-303 596h-64v-596h-340v1434h340z" />
    <glyph glyph-name="L" unicode="L" horiz-adv-x="1064" 
d="M471 1434v-1123h537v-311h-877v1434h340z" />
    <glyph glyph-name="M" unicode="M" horiz-adv-x="1572" 
d="M885 238h-197l-221 446h-8v-684h-328v1434h272l379 -744h9l380 744h271v-1434h-328v684h-8z" />
    <glyph glyph-name="N" unicode="N" horiz-adv-x="1363" 
d="M1253 1434v-1434h-299l-487 786h-8v-786h-328v1434h305l482 -762h8v762h327z" />
    <glyph glyph-name="O" unicode="O" 
d="M629 -16q-269 0 -407 139.5t-138 384.5v416q0 244 138.5 385t406.5 141q266 0 403 -141t137 -385v-416q0 -245 -136.5 -384.5t-403.5 -139.5zM629 285q109 0 153.5 59.5t44.5 185.5v375q0 124 -44.5 183t-153.5 59t-156 -59.5t-47 -182.5v-375q0 -125 46.5 -185
t156.5 -60z" />
    <glyph glyph-name="P" unicode="P" horiz-adv-x="1218" 
d="M131 1434h455q110 0 192.5 -13t153.5 -46t116 -88t70 -140t25 -201q0 -251 -137 -365t-402 -114h-133v-467h-340v1434zM471 1143v-383h109q121 0 170 44t49 148q0 107 -48 149t-171 42h-109z" />
    <glyph glyph-name="Q" unicode="Q" 
d="M629 -16q-269 0 -407 139.5t-138 384.5v416q0 244 138.5 385t406.5 141q266 0 403 -141t137 -385v-416q0 -171 -69 -297l157 -141l-190 -201l-172 162q-112 -47 -266 -47zM643 272l-115 113l177 182l120 -104q2 20 2 67v375q0 124 -44.5 183t-153.5 59t-156 -59.5
t-47 -182.5v-375q0 -129 49 -193.5t168 -64.5z" />
    <glyph glyph-name="R" unicode="R" horiz-adv-x="1216" 
d="M131 1434h467q265 0 405 -113t140 -360q0 -87 -19.5 -158.5t-54 -120t-73.5 -80.5t-85 -53l308 -549h-377l-244 492h-129v-492h-338v1434zM469 1143v-361h135q98 0 147.5 41.5t49.5 137.5q0 103 -52.5 142.5t-164.5 39.5h-115z" />
    <glyph glyph-name="S" unicode="S" horiz-adv-x="1120" 
d="M541 -16q-251 0 -506 155l117 256q241 -112 399 -112q94 0 141 39t47 98q0 46 -28.5 80t-75 53.5t-106 40.5t-121 39t-121 51t-106 75t-75 112t-28.5 161q0 202 123 310t356 108q249 0 477 -152l-141 -245q-173 102 -322 102q-81 0 -121 -29t-40 -82q0 -33 22.5 -58.5
t61 -43t88.5 -33.5t105 -35t110.5 -41.5t105.5 -58t88.5 -80t61 -112t22.5 -150.5q0 -214 -131.5 -331t-402.5 -117z" />
    <glyph glyph-name="T" unicode="T" horiz-adv-x="1220" 
d="M63 1434h1084v-312h-371v-1122h-340v1122h-373v312z" />
    <glyph glyph-name="U" unicode="U" horiz-adv-x="1310" 
d="M655 -16q-263 0 -398.5 130t-135.5 371v949h340v-930q0 -110 42.5 -166.5t151.5 -56.5t152 56.5t43 166.5v930h340v-949q0 -240 -136 -370.5t-399 -130.5z" />
    <glyph glyph-name="V" unicode="V" horiz-adv-x="1255" 
d="M621 508h8l229 926h369l-449 -1434h-309l-428 1434h352z" />
    <glyph glyph-name="W" unicode="W" horiz-adv-x="1820" 
d="M913 780h-8l-188 -780h-336l-340 1434h369l149 -910h8l205 910h275l204 -910h9l149 910h371l-340 -1434h-340z" />
    <glyph glyph-name="X" unicode="X" horiz-adv-x="1157" 
d="M573 997h9l170 437h364l-328 -693l347 -741h-369l-184 467h-9l-184 -467h-369l349 741l-330 693h367z" />
    <glyph glyph-name="Y" unicode="Y" horiz-adv-x="1306" 
d="M825 0h-344v559l-442 875h379l229 -551h12l232 551h377l-443 -875v-559z" />
    <glyph glyph-name="Z" unicode="Z" horiz-adv-x="1153" 
d="M119 1434h946v-224l-553 -919h553v-291h-977v227l551 920h-520v287z" />
    <glyph glyph-name="bracketleft" unicode="[" horiz-adv-x="776" 
d="M123 1536h545v-279h-219v-1216h219v-279h-545v1774z" />
    <glyph glyph-name="backslash" unicode="\" horiz-adv-x="874" 
d="M319 1595l553 -1757h-315l-553 1757h315z" />
    <glyph glyph-name="bracketright" unicode="]" horiz-adv-x="776" 
d="M109 1536h544v-1774h-544v279h219v1216h-219v279z" />
    <glyph glyph-name="asciicircum" unicode="^" horiz-adv-x="1105" 
d="M788 692l-235 482l-236 -482h-294l428 844h204l428 -844h-295z" />
    <glyph glyph-name="underscore" unicode="_" horiz-adv-x="1161" 
d="M59 -303v254h1041v-254h-1041z" />
    <glyph glyph-name="grave" unicode="`" horiz-adv-x="894" 
d="M219 1653h330l108 -391h-225z" />
    <glyph glyph-name="a" unicode="a" horiz-adv-x="1091" 
d="M989 743v-743h-270l-23 113q-108 -129 -284 -129q-149 0 -246.5 89.5t-97.5 239.5q0 108 48.5 189t133.5 127.5t187.5 69t221.5 22.5v49q0 113 -149 113q-140 0 -320 -84l-86 227q212 129 435 129q225 0 337.5 -106.5t112.5 -305.5zM500 244q56 0 96.5 26t62.5 64v166
q-117 0 -193.5 -40t-76.5 -116q0 -45 29.5 -72.5t81.5 -27.5z" />
    <glyph glyph-name="b" unicode="b" horiz-adv-x="1124" 
d="M440 1536v-481q43 43 111.5 71.5t138.5 28.5q179 0 271 -117t92 -331v-273q0 -215 -95 -332.5t-282 -117.5q-76 0 -152 33.5t-118 86.5l-27 -104h-266v1536h327zM440 772v-403q66 -76 146 -76q72 0 105.5 43.5t33.5 136.5v193q0 91 -33.5 135.5t-105.5 44.5
q-82 0 -146 -74z" />
    <glyph glyph-name="c" unicode="c" horiz-adv-x="995" 
d="M72 440v258q0 214 120 335.5t351 121.5q294 0 424 -248l-230 -164q-41 68 -84.5 97.5t-101.5 29.5q-72 0 -112 -45.5t-40 -122.5v-266q0 -77 40 -122.5t112 -45.5q55 0 100 27.5t92 99.5l234 -159q-77 -123 -176 -187.5t-252 -64.5q-232 0 -354.5 121.5t-122.5 334.5z
" />
    <glyph glyph-name="d" unicode="d" horiz-adv-x="1124" 
d="M684 1055v481h328v-1536h-267l-26 104q-42 -53 -118 -86.5t-152 -33.5q-187 0 -282 117.5t-95 332.5v273q0 214 91.5 331t270.5 117q70 0 138.5 -28.5t111.5 -71.5zM684 369v403q-64 74 -145 74q-72 0 -106 -44.5t-34 -135.5v-193q0 -92 34 -136t106 -44q79 0 145 76z
" />
    <glyph glyph-name="e" unicode="e" horiz-adv-x="1044" 
d="M72 406v301q0 214 114.5 331t343.5 117q453 0 453 -448v-258h-582v-80q0 -51 37 -83t119 -32t149 13.5t173 56.5l79 -232q-159 -108 -419 -108q-230 0 -348.5 111.5t-118.5 310.5zM539 891q-138 0 -138 -164v-37h273v37q0 164 -135 164z" />
    <glyph glyph-name="f" unicode="f" horiz-adv-x="880" 
d="M588 1561q71 0 146 -17.5t132 -48.5l-71 -248q-71 29 -138 29q-55 0 -84.5 -25t-29.5 -71v-41h270v-262h-270v-877h-328v877h-176v247l176 15v26q0 89 20 159.5t63 124.5t116.5 83t173.5 29z" />
    <glyph glyph-name="g" unicode="g" horiz-adv-x="1114" 
d="M684 0v115q-43 -43 -112 -72t-138 -29q-179 0 -270.5 117.5t-91.5 331.5v242q0 215 95 332.5t282 117.5q76 0 152 -33.5t118 -87.5l26 105h267v-1092q0 -215 -130.5 -346t-357.5 -131q-115 0 -228 26.5t-187 75.5l84 238q95 -37 161 -49.5t144 -12.5q93 0 139.5 42.5
t46.5 109.5zM684 397v373q-66 76 -145 76q-72 0 -106 -44t-34 -136v-162q0 -91 34 -135.5t106 -44.5q82 0 145 73z" />
    <glyph glyph-name="h" unicode="h" horiz-adv-x="1165" 
d="M440 1536v-471q121 90 281 90q175 0 258.5 -111t83.5 -296v-748h-328v680q0 87 -33 125.5t-96 38.5q-82 0 -166 -68v-776h-327v1536h327z" />
    <glyph glyph-name="i" unicode="i" horiz-adv-x="552" 
d="M113 0v1139h327v-1139h-327zM109 1255v322h335v-322h-335z" />
    <glyph glyph-name="j" unicode="j" horiz-adv-x="552" 
d="M123 -41v1180h328v-1166q0 -90 -19 -159.5t-61.5 -124t-117 -83t-177.5 -28.5q-159 0 -275 64l78 241q68 -20 152 -20q44 0 68 25t24 71zM119 1255v322h336v-322h-336z" />
    <glyph glyph-name="k" unicode="k" horiz-adv-x="1060" 
d="M1047 1139l-279 -518l285 -621h-377l-184 475h-52v-475h-327v1536h327v-791h49l187 394h371z" />
    <glyph glyph-name="l" unicode="l" horiz-adv-x="542" 
d="M113 0v1536h327v-1536h-327z" />
    <glyph glyph-name="m" unicode="m" horiz-adv-x="1726" 
d="M1040 717v-717h-325v688q0 81 -31 118.5t-92 37.5q-77 0 -152 -68v-776h-327v1139h268l27 -101q131 117 301 117q185 0 280 -123q71 63 137.5 93t157.5 30t158 -30.5t106 -87t57.5 -128t18.5 -161.5v-748h-328v680q0 88 -32 126t-95 38q-65 0 -133 -47q4 -54 4 -80z" />
    <glyph glyph-name="n" unicode="n" horiz-adv-x="1157" 
d="M381 1139l27 -101q127 117 309 117q72 0 129.5 -20.5t96 -56.5t64 -87.5t37 -111.5t11.5 -131v-748h-328v680q0 88 -31.5 126t-93.5 38q-78 0 -162 -68v-776h-327v1139h268z" />
    <glyph glyph-name="o" unicode="o" horiz-adv-x="1085" 
d="M543 870q-80 0 -112 -42t-32 -138v-244q0 -94 32 -136t112 -42q81 0 112 42t31 136v244q0 97 -31 138.5t-112 41.5zM543 -16q-233 0 -352 118t-119 330v266q0 216 119 336.5t352 120.5t352 -120.5t119 -336.5v-266q0 -212 -119 -330t-352 -118z" />
    <glyph glyph-name="p" unicode="p" horiz-adv-x="1124" 
d="M440 84v-498h-327v1553h266l27 -105q111 121 270 121q187 0 282 -117.5t95 -332.5v-273q0 -214 -92 -331t-271 -117q-70 0 -138.5 28.5t-111.5 71.5zM440 770v-403q64 -74 146 -74q72 0 105.5 44.5t33.5 135.5v193q0 93 -33.5 136.5t-105.5 43.5q-80 0 -146 -76z" />
    <glyph glyph-name="q" unicode="q" horiz-adv-x="1114" 
d="M684 -414v498q-43 -43 -111.5 -71.5t-138.5 -28.5q-179 0 -270.5 117t-91.5 331v273q0 215 95 332.5t282 117.5q159 0 270 -121l26 105h267v-1553h-328zM684 367v403q-66 76 -145 76q-72 0 -106 -44t-34 -136v-193q0 -91 34 -135.5t106 -44.5q81 0 145 74z" />
    <glyph glyph-name="r" unicode="r" horiz-adv-x="829" 
d="M440 739v-739h-327v1139h270l25 -142q42 70 112.5 114t145.5 44q71 0 147 -37l-61 -301q-60 27 -117 27q-53 0 -105.5 -28.5t-89.5 -76.5z" />
    <glyph glyph-name="s" unicode="s" horiz-adv-x="954" 
d="M469 -16q-100 0 -211 31t-211 91l70 238q224 -90 352 -90q70 0 98.5 24t28.5 70q0 34 -29 58t-75 39.5t-101.5 30.5t-111 39t-101.5 57.5t-75 93t-29 139.5q0 175 114 262.5t306 87.5q99 0 203 -31t184 -82l-78 -231q-174 82 -307 82q-107 0 -107 -68q0 -32 29 -54
t75 -36.5t101.5 -29t111 -38.5t101.5 -57.5t75 -94t29 -140.5q0 -197 -109.5 -294t-332.5 -97z" />
    <glyph glyph-name="t" unicode="t" horiz-adv-x="905" 
d="M590 -16q-103 0 -177.5 28.5t-117 83t-61.5 124t-19 159.5v498h-178v247l186 15v209l320 32v-241h286v-262h-286v-519q0 -40 28.5 -63t75.5 -23q66 0 152 27l73 -233q-128 -82 -282 -82z" />
    <glyph glyph-name="u" unicode="u" horiz-adv-x="1146" 
d="M776 0l-26 100q-126 -116 -310 -116q-72 0 -129.5 20.5t-96 56.5t-64 87.5t-37 111.5t-11.5 131v748h328v-680q0 -88 31.5 -126t93.5 -38q80 0 162 67v777h327v-1139h-268z" />
    <glyph glyph-name="v" unicode="v" horiz-adv-x="1073" 
d="M694 0h-319l-352 1139h346l163 -723h9l164 723h348z" />
    <glyph glyph-name="w" unicode="w" horiz-adv-x="1511" 
d="M618 1139h275l133 -703h8l107 703h346l-285 -1139h-325l-117 504h-8l-121 -504h-322l-282 1139h344l106 -703h8z" />
    <glyph glyph-name="x" unicode="x" horiz-adv-x="1007" 
d="M508 352h-8l-129 -352h-348l272 578l-266 561h352l119 -330h8l119 330h352l-266 -561l274 -578h-350z" />
    <glyph glyph-name="y" unicode="y" horiz-adv-x="1073" 
d="M1051 1139l-488 -1553h-313l131 414h-45l-311 1139h344l141 -733h8l184 733h349z" />
    <glyph glyph-name="z" unicode="z" horiz-adv-x="1024" 
d="M92 1139h840v-209l-451 -643h475v-287h-890v219l452 641h-426v279z" />
    <glyph glyph-name="braceleft" unicode="{" horiz-adv-x="866" 
d="M41 510v278h98q41 0 62.5 30t21.5 75v352q0 150 74 220.5t199 70.5h231v-279h-119q-27 0 -44 -18.5t-17 -42.5v-303q0 -92 -36 -156t-101 -84v-8q65 -20 101 -83.5t36 -155.5v-304q0 -24 17 -42.5t44 -18.5h119v-279h-231q-125 0 -199 70.5t-74 220.5v353
q0 45 -21.5 74.5t-62.5 29.5h-98z" />
    <glyph glyph-name="bar" unicode="|" horiz-adv-x="524" 
d="M100 -238v1809h324v-1809h-324z" />
    <glyph glyph-name="braceright" unicode="}" horiz-adv-x="866" 
d="M825 788v-278h-98q-41 0 -62.5 -29.5t-21.5 -74.5v-353q0 -151 -73.5 -221t-198.5 -70h-232v279h119q27 0 44 18.5t17 42.5v304q0 92 36.5 155.5t101.5 83.5v8q-65 20 -101.5 84t-36.5 156v303q0 24 -17 42.5t-44 18.5h-119v279h232q125 0 198.5 -70t73.5 -221v-352
q0 -45 21.5 -75t62.5 -30h98z" />
    <glyph glyph-name="exclamdown" unicode="&#xa1;" horiz-adv-x="548" 
d="M457 -324h-365l47 955h271zM90 739v371h369v-371h-369z" />
    <glyph glyph-name="cent" unicode="&#xa2;" horiz-adv-x="980" 
d="M377 0v129q-157 32 -240.5 134t-83.5 263v355q0 161 83.5 263t240.5 134v156h272v-158q56 -6 133.5 -38t130.5 -71l-65 -241q-208 88 -326 88q-75 0 -111 -28.5t-36 -76.5v-411q0 -48 36 -76.5t111 -28.5q118 0 326 88l65 -241q-53 -39 -130.5 -71t-133.5 -38v-131h-272z
" />
    <glyph glyph-name="sterling" unicode="&#xa3;" horiz-adv-x="1232" 
d="M178 864q-33 101 -33 160q0 90 28.5 163t76.5 121.5t114 81t138 46.5t151 14q229 0 443 -133l-123 -238q-177 82 -307 82q-33 0 -62.5 -6t-60.5 -22t-49.5 -49.5t-18.5 -82.5q0 -52 29 -137h452v-270h-391q21 -75 21 -127q0 -106 -76 -176l2 -6h575v-285h-1030v242
q38 17 63 29t57.5 33.5t51 43t32 53t13.5 68.5q0 65 -22 125h-232v244z" />
    <glyph glyph-name="currency" unicode="&#xa4;" horiz-adv-x="1159" 
d="M195 113l-164 168l166 168q-47 92 -47 225q0 140 45 221l-164 168l164 168l170 -172q81 47 215 47q131 0 215 -47l170 172l163 -168l-167 -168q49 -91 49 -221q0 -134 -49 -225l167 -168l-163 -168l-172 172q-78 -45 -213 -45q-137 0 -215 45zM768 674q0 97 -46.5 151
t-141.5 54t-142 -54t-47 -151q0 -98 46.5 -151.5t142.5 -53.5q188 0 188 205z" />
    <glyph glyph-name="yen" unicode="&#xa5;" horiz-adv-x="1306" 
d="M217 530v244h156l-334 660h379l229 -551h12l232 551h377l-334 -660h156v-244h-265v-96h265v-244h-265v-190h-344v190h-264v244h264v96h-264z" />
    <glyph glyph-name="brokenbar" unicode="&#xa6;" horiz-adv-x="524" 
d="M100 743v828h324v-828h-324zM100 -238v828h324v-828h-324z" />
    <glyph glyph-name="section" unicode="&#xa7;" horiz-adv-x="1118" 
d="M381 596q0 -39 17.5 -71t42 -51.5t63.5 -37t70.5 -26.5t75 -21.5t65.5 -19.5q20 28 20 61q0 39 -17.5 71t-42 51.5t-63.5 37t-70.5 26.5t-75 21.5t-65.5 19.5q-20 -28 -20 -61zM541 -137q73 0 113 30t40 78q0 43 -27.5 75.5t-72.5 52t-102.5 40.5t-117 40t-117 53
t-102.5 77t-72.5 113.5t-27.5 161.5q0 129 92 239q-55 104 -55 226q0 187 125.5 294t345.5 107q243 0 459 -137l-104 -238q-71 39 -163 63.5t-169 24.5q-80 0 -122 -30t-42 -78q0 -43 27.5 -75.5t72.5 -52t102.5 -40.5t117 -40t117 -53t102.5 -77t72.5 -113.5t27.5 -161.5
q0 -129 -92 -239q55 -104 55 -226q0 -188 -121 -294.5t-340 -106.5q-243 0 -459 137l105 238q71 -39 163 -63.5t169 -24.5z" />
    <glyph glyph-name="dieresis" unicode="&#xa8;" horiz-adv-x="929" 
d="M125 1268v280h274v-280h-274zM530 1268v280h275v-280h-275z" />
    <glyph glyph-name="copyright" unicode="&#xa9;" horiz-adv-x="1820" 
d="M911 215q257 0 393 152t136 415t-136 415.5t-393 152.5t-393.5 -152.5t-136.5 -415.5t136.5 -415t393.5 -152zM911 -14q-254 0 -436 99.5t-274 278t-92 418.5q0 241 92 420t274 279t436 100q190 0 341.5 -57t252 -162t154 -252.5t53.5 -327.5q0 -240 -92 -418.5
t-274 -278t-435 -99.5zM786 897v-229q0 -150 125 -150q92 0 148 103l166 -99q-108 -192 -314 -192q-166 0 -252 87t-86 238v254q0 151 86 238.5t252 87.5q207 0 312 -191l-166 -100q-32 54 -65 78.5t-81 24.5q-125 0 -125 -150z" />
    <glyph glyph-name="ordfeminine" unicode="&#xaa;" horiz-adv-x="821" 
d="M719 1174v-500h-178l-17 69q-68 -79 -196 -79q-103 0 -165.5 60t-62.5 161q0 96 58 162t145 94t195 28v23q0 70 -101 70q-98 0 -217 -58l-57 164q143 82 289 82q154 0 230.5 -71.5t76.5 -204.5zM391 842q40 0 70.5 17.5t36.5 41.5v107q-73 0 -124.5 -24.5t-51.5 -74.5
q0 -31 19 -49t50 -18z" />
    <glyph glyph-name="guillemotleft" unicode="&#xab;" horiz-adv-x="1398" 
d="M92 532v160l621 400v-236l-269 -244l269 -243v-236zM686 532v160l621 400v-236l-269 -244l269 -243v-236z" />
    <glyph glyph-name="logicalnot" unicode="&#xac;" horiz-adv-x="1136" 
d="M825 104v445h-792v270h1071v-715h-279z" />
    <glyph glyph-name="registered" unicode="&#xae;" horiz-adv-x="1093" 
d="M547 489q-229 0 -360.5 136t-131.5 364q0 225 131.5 359.5t360.5 134.5t360 -134.5t131 -359.5q0 -228 -131 -364t-360 -136zM365 1260h182q209 0 209 -181q0 -63 -26 -102t-64 -55l114 -201h-143l-94 178h-47v-178h-131v539zM496 1151v-141h51q76 0 76 69
q0 39 -20.5 55.5t-63.5 16.5h-43zM547 633q350 0 350 356q0 168 -86.5 261t-263.5 93t-263.5 -93t-86.5 -261q0 -356 350 -356z" />
    <glyph glyph-name="macron" unicode="&#xaf;" horiz-adv-x="808" 
d="M100 1298v238h609v-238h-609z" />
    <glyph glyph-name="degree" unicode="&#xb0;" horiz-adv-x="749" 
d="M678 1227q0 -126 -84 -210.5t-219 -84.5t-219 84.5t-84 210.5t84 210.5t219 84.5t219 -84.5t84 -210.5zM262 1227q0 -50 30.5 -82.5t82.5 -32.5q51 0 81.5 32t30.5 83q0 50 -30 82t-82 32t-82.5 -32t-30.5 -82z" />
    <glyph glyph-name="plusminus" unicode="&#xb1;" horiz-adv-x="1046" 
d="M33 653v271h350v333h279v-333h352v-271h-352v-319h-279v319h-350zM33 0v262h981v-262h-981z" />
    <glyph glyph-name="twosuperior" unicode="&#xb2;" horiz-adv-x="845" 
d="M385 1208q-96 0 -227 -67l-90 192q174 111 331 111q152 0 245 -73.5t93 -199.5q0 -64 -31.5 -122t-80 -101t-98.5 -79.5t-94.5 -73t-59.5 -66.5h366v-233h-657v141q0 52 21.5 101t56 88t76 75.5t83.5 68.5t76.5 61.5t56 59.5t21.5 58q0 29 -23.5 44t-64.5 15z" />
    <glyph glyph-name="threesuperior" unicode="&#xb3;" horiz-adv-x="845" 
d="M403 489q-88 0 -177 32.5t-154 80.5l90 170q140 -70 239 -70q67 0 95 29t28 70q0 38 -27.5 63t-80.5 25h-199v184h176q51 0 80 23t29 61q0 36 -25 57t-71 21q-88 0 -218 -68l-92 166q168 111 324 111q154 0 231.5 -73t77.5 -204q0 -103 -84 -168q54 -33 78.5 -82.5
t24.5 -132.5q0 -62 -18 -113t-57 -93t-108 -65.5t-162 -23.5z" />
    <glyph glyph-name="acute" unicode="&#xb4;" horiz-adv-x="894" 
d="M344 1653h330l-213 -391h-225z" />
    <glyph glyph-name="mu" unicode="&#xb5;" horiz-adv-x="1146" 
d="M102 -414v1553h328v-680q0 -88 31.5 -126t93.5 -38q80 0 162 67v777h327v-1139h-268l-26 100q-126 -116 -320 -116v-398h-328z" />
    <glyph glyph-name="paragraph" unicode="&#xb6;" horiz-adv-x="1277" 
d="M457 -414v989q-164 5 -275.5 126.5t-111.5 302.5q0 184 123.5 307t302.5 123h727v-275h-140v-1573h-266v1573h-94v-1573h-266z" />
    <glyph glyph-name="periodcentered" unicode="&#xb7;" horiz-adv-x="505" 
d="M68 444v371h368v-371h-368z" />
    <glyph glyph-name="cedilla" unicode="&#xb8;" horiz-adv-x="909" 
d="M299 0h188l-20 -76q90 8 154.5 -37t64.5 -139q0 -111 -67 -165t-181 -54q-109 0 -217 51l41 141q92 -28 156 -28q37 0 51 13t14 40q0 20 -13 36.5t-46 16.5q-38 0 -78 -12l-61 61z" />
    <glyph glyph-name="onesuperior" unicode="&#xb9;" horiz-adv-x="862" 
d="M88 1298l332 136h192v-705h158v-233h-618v233h200v424l-176 -72z" />
    <glyph glyph-name="ordmasculine" unicode="&#xba;" horiz-adv-x="821" 
d="M412 1260q-54 0 -75.5 -28.5t-21.5 -94.5v-162q0 -64 21.5 -92.5t75.5 -28.5t75 28.5t21 92.5v162q0 66 -21 94.5t-75 28.5zM412 664q-158 0 -238 79.5t-80 221.5v178q0 145 80 226t238 81q155 0 235 -81.5t80 -225.5v-178q0 -141 -80 -221t-235 -80z" />
    <glyph glyph-name="guillemotright" unicode="&#xbb;" horiz-adv-x="1398" 
d="M1307 692v-160l-621 -399v236l268 243l-268 244v236zM713 692v-160l-621 -399v236l268 243l-268 244v236z" />
    <glyph glyph-name="onequarter" unicode="&#xbc;" horiz-adv-x="2160" 
d="M1704 0v178h-410v187l260 573h258l-247 -541h139v174h235v-174h109v-219h-109v-178h-235zM692 -51l518 1536h310l-519 -1536h-309zM98 1298l332 136h193v-705h157v-233h-618v233h200v424l-176 -72z" />
    <glyph glyph-name="onehalf" unicode="&#xbd;" horiz-adv-x="2172" 
d="M692 -51l518 1536h310l-519 -1536h-309zM98 1298l332 136h193v-705h157v-233h-618v233h200v424l-176 -72zM1700 713q-94 0 -227 -68l-91 193q172 110 332 110q153 0 245.5 -73t92.5 -199q0 -64 -31.5 -122t-80 -101.5t-98.5 -80t-94.5 -73t-59.5 -66.5h366v-233h-657v141
q0 52 21.5 101t56 88t76 75.5t83.5 68.5t76.5 61.5t56 59.5t21.5 58q0 29 -23.5 44.5t-64.5 15.5z" />
    <glyph glyph-name="threequarters" unicode="&#xbe;" horiz-adv-x="2138" 
d="M1683 0v178h-409v187l260 573h258l-248 -541h139v174h236v-174h109v-219h-109v-178h-236zM672 -51l518 1536h309l-518 -1536h-309zM436 489q-88 0 -177.5 32.5t-154.5 80.5l91 170q140 -70 239 -70q67 0 95 29t28 70q0 38 -27.5 63t-80.5 25h-199v184h176q51 0 80 23
t29 61q0 36 -25.5 57t-71.5 21q-87 0 -217 -68l-92 166q168 111 324 111q154 0 231.5 -73t77.5 -204q0 -103 -84 -168q54 -32 78 -82t24 -133q0 -62 -18 -113t-56.5 -93t-107.5 -65.5t-162 -23.5z" />
    <glyph glyph-name="questiondown" unicode="&#xbf;" horiz-adv-x="1079" 
d="M807 1110v-371h-369v371h369zM573 -59q139 0 334 102l117 -225q-223 -158 -465 -158q-241 0 -364 102t-123 291q0 64 21.5 116.5t56.5 88t76.5 65t83.5 52t77 44t56.5 47t21.5 54.5v111h319v-154q0 -54 -21 -99t-55 -76t-75 -57.5t-81.5 -49t-74.5 -44t-55 -48.5t-21 -58
q0 -51 46.5 -77.5t125.5 -26.5z" />
    <glyph glyph-name="Agrave" unicode="&#xc0;" horiz-adv-x="1269" 
d="M473 1434h324l454 -1434h-356l-82 281h-356l-82 -281h-357zM524 573h221l-106 416h-8zM315 1960h330l109 -391h-226z" />
    <glyph glyph-name="Aacute" unicode="&#xc1;" horiz-adv-x="1269" 
d="M473 1434h324l454 -1434h-356l-82 281h-356l-82 -281h-357zM524 573h221l-106 416h-8zM604 1960h330l-213 -391h-225z" />
    <glyph glyph-name="Acircumflex" unicode="&#xc2;" horiz-adv-x="1269" 
d="M473 1434h324l454 -1434h-356l-82 281h-356l-82 -281h-357zM524 573h221l-106 416h-8zM784 1569l-147 164l-148 -164h-210l247 391h219l248 -391h-209z" />
    <glyph glyph-name="Atilde" unicode="&#xc3;" horiz-adv-x="1269" 
d="M473 1434h324l454 -1434h-356l-82 281h-356l-82 -281h-357zM524 573h221l-106 416h-8zM778 1550q-48 0 -98 25t-94.5 49.5t-77.5 24.5q-55 0 -100 -95l-158 74q86 252 246 252q48 0 98.5 -24.5t95 -49t76.5 -24.5q45 0 80 57l20 35l158 -72q-53 -141 -109 -196.5
t-137 -55.5z" />
    <glyph glyph-name="Adieresis" unicode="&#xc4;" horiz-adv-x="1269" 
d="M473 1434h324l454 -1434h-356l-82 281h-356l-82 -281h-357zM524 573h221l-106 416h-8zM299 1575v280h274v-280h-274zM705 1575v280h274v-280h-274z" />
    <glyph glyph-name="Aring" unicode="&#xc5;" horiz-adv-x="1269" 
d="M473 1434h324l454 -1434h-356l-82 281h-356l-82 -281h-357zM524 573h221l-106 416h-8zM383 1761q0 109 71.5 176.5t182.5 67.5t182.5 -67.5t71.5 -176.5q0 -108 -71.5 -174.5t-182.5 -66.5t-182.5 66.5t-71.5 174.5zM553 1761q0 -36 22.5 -59t61.5 -23t61.5 23t22.5 59
t-22.5 60t-61.5 24q-40 0 -62 -23.5t-22 -60.5z" />
    <glyph glyph-name="AE" unicode="&#xc6;" horiz-adv-x="1708" 
d="M524 573h221l-106 416h-8zM1597 0h-702l-82 281h-356l-82 -281h-359l455 1434h1126v-291h-708l78 -266h583v-291h-491l94 -295h444v-291z" />
    <glyph glyph-name="Ccedilla" unicode="&#xc7;" horiz-adv-x="1165" 
d="M84 510v414q0 244 138.5 385t406.5 141q102 0 184 -23.5t141 -68.5t100.5 -99t75.5 -126l-270 -134q-32 71 -83 109.5t-134 38.5q-110 0 -162.5 -67t-52.5 -175v-377q0 -108 53 -174.5t164 -66.5q158 0 223 149l269 -137q-30 -69 -66.5 -120.5t-90.5 -95t-131 -68.5
t-175 -29l-17 -62q91 8 155.5 -37t64.5 -139q0 -111 -67 -165t-181 -54q-109 0 -217 51l41 141q92 -28 155 -28q38 0 52 13t14 40q0 20 -13.5 36.5t-46.5 16.5q-37 0 -77 -12l-62 61l14 148q-199 36 -302 171t-103 343z" />
    <glyph glyph-name="Egrave" unicode="&#xc8;" horiz-adv-x="1120" 
d="M1010 0h-879v1434h879v-291h-539v-266h492v-291h-492v-295h539v-291zM291 1960h330l108 -391h-225z" />
    <glyph glyph-name="Eacute" unicode="&#xc9;" horiz-adv-x="1120" 
d="M1010 0h-879v1434h879v-291h-539v-266h492v-291h-492v-295h539v-291zM539 1960h329l-213 -391h-225z" />
    <glyph glyph-name="Ecircumflex" unicode="&#xca;" horiz-adv-x="1120" 
d="M1010 0h-879v1434h879v-291h-539v-266h492v-291h-492v-295h539v-291zM721 1569l-148 164l-147 -164h-211l248 391h219l248 -391h-209z" />
    <glyph glyph-name="Edieresis" unicode="&#xcb;" horiz-adv-x="1120" 
d="M1010 0h-879v1434h879v-291h-539v-266h492v-291h-492v-295h539v-291zM240 1575v280h274v-280h-274zM645 1575v280h275v-280h-275z" />
    <glyph glyph-name="Igrave" unicode="&#xcc;" horiz-adv-x="602" 
d="M131 0v1434h340v-1434h-340zM20 1960h330l109 -391h-226z" />
    <glyph glyph-name="Iacute" unicode="&#xcd;" horiz-adv-x="602" 
d="M131 0v1434h340v-1434h-340zM252 1960h330l-213 -391h-226z" />
    <glyph glyph-name="Icircumflex" unicode="&#xce;" horiz-adv-x="602" 
d="M131 0v1434h340v-1434h-340zM455 1569l-148 164l-147 -164h-211l248 391h219l248 -391h-209z" />
    <glyph glyph-name="Idieresis" unicode="&#xcf;" horiz-adv-x="602" 
d="M131 0v1434h340v-1434h-340zM-35 1575v280h275v-280h-275zM371 1575v280h274v-280h-274z" />
    <glyph glyph-name="Eth" unicode="&#xd0;" horiz-adv-x="1343" 
d="M43 590v278h111v566h508q288 0 443 -175t155 -538q0 -338 -152 -529.5t-403 -191.5h-551v590h-111zM492 1143v-275h235v-278h-235v-299h143q278 0 278 436q0 83 -12.5 151.5t-41.5 131t-86 98t-138 35.5h-143z" />
    <glyph glyph-name="Ntilde" unicode="&#xd1;" horiz-adv-x="1363" 
d="M1253 1434v-1434h-299l-487 786h-8v-786h-328v1434h305l482 -762h8v762h327zM844 1550q-48 0 -98.5 25t-95 49.5t-77.5 24.5q-55 0 -100 -95l-158 74q86 252 246 252q48 0 98.5 -24.5t95 -49t76.5 -24.5q45 0 80 57l21 35l158 -72q-53 -141 -109 -196.5t-137 -55.5z" />
    <glyph glyph-name="Ograve" unicode="&#xd2;" 
d="M629 -16q-269 0 -407 139.5t-138 384.5v416q0 244 138.5 385t406.5 141q266 0 403 -141t137 -385v-416q0 -245 -136.5 -384.5t-403.5 -139.5zM629 285q109 0 153.5 59.5t44.5 185.5v375q0 124 -44.5 183t-153.5 59t-156 -59.5t-47 -182.5v-375q0 -125 46.5 -185
t156.5 -60zM334 1960h330l108 -391h-225z" />
    <glyph glyph-name="Oacute" unicode="&#xd3;" 
d="M629 -16q-269 0 -407 139.5t-138 384.5v416q0 244 138.5 385t406.5 141q266 0 403 -141t137 -385v-416q0 -245 -136.5 -384.5t-403.5 -139.5zM629 285q109 0 153.5 59.5t44.5 185.5v375q0 124 -44.5 183t-153.5 59t-156 -59.5t-47 -182.5v-375q0 -125 46.5 -185
t156.5 -60zM575 1960h330l-213 -391h-225z" />
    <glyph glyph-name="Ocircumflex" unicode="&#xd4;" 
d="M629 -16q-269 0 -407 139.5t-138 384.5v416q0 244 138.5 385t406.5 141q266 0 403 -141t137 -385v-416q0 -245 -136.5 -384.5t-403.5 -139.5zM629 285q109 0 153.5 59.5t44.5 185.5v375q0 124 -44.5 183t-153.5 59t-156 -59.5t-47 -182.5v-375q0 -125 46.5 -185
t156.5 -60zM780 1569l-147 164l-148 -164h-211l248 391h219l248 -391h-209z" />
    <glyph glyph-name="Otilde" unicode="&#xd5;" 
d="M629 -16q-269 0 -407 139.5t-138 384.5v416q0 244 138.5 385t406.5 141q266 0 403 -141t137 -385v-416q0 -245 -136.5 -384.5t-403.5 -139.5zM629 285q109 0 153.5 59.5t44.5 185.5v375q0 124 -44.5 183t-153.5 59t-156 -59.5t-47 -182.5v-375q0 -125 46.5 -185
t156.5 -60zM770 1550q-48 0 -98 25t-94.5 49.5t-77.5 24.5q-56 0 -101 -95l-157 74q86 252 245 252q48 0 99 -24.5t95.5 -49t76.5 -24.5q45 0 80 57l20 35l158 -72q-53 -141 -109 -196.5t-137 -55.5z" />
    <glyph glyph-name="Odieresis" unicode="&#xd6;" 
d="M629 -16q-269 0 -407 139.5t-138 384.5v416q0 244 138.5 385t406.5 141q266 0 403 -141t137 -385v-416q0 -245 -136.5 -384.5t-403.5 -139.5zM629 285q109 0 153.5 59.5t44.5 185.5v375q0 124 -44.5 183t-153.5 59t-156 -59.5t-47 -182.5v-375q0 -125 46.5 -185
t156.5 -60zM291 1575v280h274v-280h-274zM696 1575v280h275v-280h-275z" />
    <glyph glyph-name="multiply" unicode="&#xd7;" horiz-adv-x="1056" 
d="M780 1063l199 -195l-256 -256l256 -256l-199 -194l-254 254l-252 -254l-198 194l254 256l-254 256l198 195l252 -254z" />
    <glyph glyph-name="Oslash" unicode="&#xd8;" 
d="M629 -16q-97 0 -174 18l-52 -129h-229l86 215q-176 136 -176 420v416q0 244 138.5 385t406.5 141q91 0 168 -18l51 129h229l-86 -218q178 -138 178 -419v-416q0 -245 -136.5 -384.5t-403.5 -139.5zM629 285q109 0 153.5 59.5t44.5 185.5v404l-258 -643q27 -6 60 -6z
M426 905v-401l254 639q-32 4 -51 4q-109 0 -156 -59.5t-47 -182.5z" />
    <glyph glyph-name="Ugrave" unicode="&#xd9;" horiz-adv-x="1310" 
d="M655 -16q-263 0 -398.5 130t-135.5 371v949h340v-930q0 -110 42.5 -166.5t151.5 -56.5t152 56.5t43 166.5v930h340v-949q0 -240 -136 -370.5t-399 -130.5zM354 1960h330l109 -391h-226z" />
    <glyph glyph-name="Uacute" unicode="&#xda;" horiz-adv-x="1310" 
d="M655 -16q-263 0 -398.5 130t-135.5 371v949h340v-930q0 -110 42.5 -166.5t151.5 -56.5t152 56.5t43 166.5v930h340v-949q0 -240 -136 -370.5t-399 -130.5zM623 1960h329l-213 -391h-225z" />
    <glyph glyph-name="Ucircumflex" unicode="&#xdb;" horiz-adv-x="1310" 
d="M655 -16q-263 0 -398.5 130t-135.5 371v949h340v-930q0 -110 42.5 -166.5t151.5 -56.5t152 56.5t43 166.5v930h340v-949q0 -240 -136 -370.5t-399 -130.5zM805 1569l-148 164l-147 -164h-211l248 391h219l248 -391h-209z" />
    <glyph glyph-name="Udieresis" unicode="&#xdc;" horiz-adv-x="1310" 
d="M655 -16q-263 0 -398.5 130t-135.5 371v949h340v-930q0 -110 42.5 -166.5t151.5 -56.5t152 56.5t43 166.5v930h340v-949q0 -240 -136 -370.5t-399 -130.5zM324 1575v280h274v-280h-274zM729 1575v280h275v-280h-275z" />
    <glyph glyph-name="Yacute" unicode="&#xdd;" horiz-adv-x="1306" 
d="M825 0h-344v559l-442 875h379l229 -551h12l232 551h377l-443 -875v-559zM651 1948h330l-213 -392h-225z" />
    <glyph glyph-name="Thorn" unicode="&#xde;" horiz-adv-x="1218" 
d="M471 1434v-199h115q138 0 235 -21.5t172.5 -75t112.5 -150t37 -240.5q0 -252 -137.5 -366t-401.5 -114h-133v-268h-340v1434h340zM471 944v-383h109q121 0 170 44.5t49 148.5q0 107 -48 148.5t-171 41.5h-109z" />
    <glyph glyph-name="germandbls" unicode="&#xdf;" horiz-adv-x="1275" 
d="M518 942h100q121 0 172.5 44t51.5 126q0 72 -49 120t-152 48q-109 0 -160 -54t-51 -136v-1090h-317v1075q0 124 40 218.5t112 152.5t167 86.5t211 28.5q239 0 378.5 -126t139.5 -323q0 -203 -151 -293v-8q87 -42 140.5 -124.5t53.5 -194.5q0 -254 -132 -373t-417 -119
h-137v283h137q71 0 117.5 16t68.5 46.5t30 62t8 75.5q0 36 -9 67t-31 62t-67 49.5t-108 18.5h-146v262z" />
    <glyph glyph-name="agrave" unicode="&#xe0;" horiz-adv-x="1091" 
d="M989 743v-743h-270l-23 113q-108 -129 -284 -129q-149 0 -246.5 89.5t-97.5 239.5q0 108 48.5 189t133.5 127.5t187.5 69t221.5 22.5v49q0 113 -149 113q-140 0 -320 -84l-86 227q212 129 435 129q225 0 337.5 -106.5t112.5 -305.5zM500 244q56 0 96.5 26t62.5 64v166
q-117 0 -193.5 -40t-76.5 -116q0 -45 29.5 -72.5t81.5 -27.5zM264 1653h330l108 -391h-225z" />
    <glyph glyph-name="aacute" unicode="&#xe1;" horiz-adv-x="1091" 
d="M989 743v-743h-270l-23 113q-108 -129 -284 -129q-149 0 -246.5 89.5t-97.5 239.5q0 108 48.5 189t133.5 127.5t187.5 69t221.5 22.5v49q0 113 -149 113q-140 0 -320 -84l-86 227q212 129 435 129q225 0 337.5 -106.5t112.5 -305.5zM500 244q56 0 96.5 26t62.5 64v166
q-117 0 -193.5 -40t-76.5 -116q0 -45 29.5 -72.5t81.5 -27.5zM506 1653h330l-213 -391h-226z" />
    <glyph glyph-name="acircumflex" unicode="&#xe2;" horiz-adv-x="1091" 
d="M989 743v-743h-270l-23 113q-108 -129 -284 -129q-149 0 -246.5 89.5t-97.5 239.5q0 108 48.5 189t133.5 127.5t187.5 69t221.5 22.5v49q0 113 -149 113q-140 0 -320 -84l-86 227q212 129 435 129q225 0 337.5 -106.5t112.5 -305.5zM500 244q56 0 96.5 26t62.5 64v166
q-117 0 -193.5 -40t-76.5 -116q0 -45 29.5 -72.5t81.5 -27.5zM700 1262l-147 163l-147 -163h-211l247 391h220l247 -391h-209z" />
    <glyph glyph-name="atilde" unicode="&#xe3;" horiz-adv-x="1091" 
d="M989 743v-743h-270l-23 113q-108 -129 -284 -129q-149 0 -246.5 89.5t-97.5 239.5q0 108 48.5 189t133.5 127.5t187.5 69t221.5 22.5v49q0 113 -149 113q-140 0 -320 -84l-86 227q212 129 435 129q225 0 337.5 -106.5t112.5 -305.5zM500 244q56 0 96.5 26t62.5 64v166
q-117 0 -193.5 -40t-76.5 -116q0 -45 29.5 -72.5t81.5 -27.5zM686 1243q-48 0 -98 24.5t-94.5 49t-77.5 24.5q-57 0 -101 -94l-157 74q86 252 245 252q48 0 99 -24.5t95.5 -49t76.5 -24.5q45 0 80 57l20 35l158 -72q-53 -141 -109 -196.5t-137 -55.5z" />
    <glyph glyph-name="adieresis" unicode="&#xe4;" horiz-adv-x="1091" 
d="M989 743v-743h-270l-23 113q-108 -129 -284 -129q-149 0 -246.5 89.5t-97.5 239.5q0 108 48.5 189t133.5 127.5t187.5 69t221.5 22.5v49q0 113 -149 113q-140 0 -320 -84l-86 227q212 129 435 129q225 0 337.5 -106.5t112.5 -305.5zM500 244q56 0 96.5 26t62.5 64v166
q-117 0 -193.5 -40t-76.5 -116q0 -45 29.5 -72.5t81.5 -27.5zM215 1268v280h274v-280h-274zM621 1268v280h274v-280h-274z" />
    <glyph glyph-name="aring" unicode="&#xe5;" horiz-adv-x="1091" 
d="M989 743v-743h-270l-23 113q-108 -129 -284 -129q-149 0 -246.5 89.5t-97.5 239.5q0 108 48.5 189t133.5 127.5t187.5 69t221.5 22.5v49q0 113 -149 113q-140 0 -320 -84l-86 227q212 129 435 129q225 0 337.5 -106.5t112.5 -305.5zM500 244q56 0 96.5 26t62.5 64v166
q-117 0 -193.5 -40t-76.5 -116q0 -45 29.5 -72.5t81.5 -27.5zM299 1468q0 109 71.5 176.5t182.5 67.5t182.5 -67.5t71.5 -176.5q0 -108 -71.5 -174.5t-182.5 -66.5t-182.5 66.5t-71.5 174.5zM469 1468q0 -36 22.5 -59t61.5 -23t61.5 23t22.5 59t-22.5 60t-61.5 24
q-40 0 -62 -23.5t-22 -60.5z" />
    <glyph glyph-name="ae" unicode="&#xe6;" horiz-adv-x="1632" 
d="M500 244q56 0 96.5 26t62.5 64v166q-117 0 -193.5 -40t-76.5 -116q0 -45 29.5 -72.5t81.5 -27.5zM1126 -16q-275 0 -391 157q-35 -64 -116.5 -110.5t-206.5 -46.5q-149 0 -246.5 89.5t-97.5 239.5q0 108 48.5 189t133.5 127.5t187.5 69t221.5 22.5v49q0 113 -149 113
q-140 0 -320 -84l-86 227q212 129 435 129q182 0 292 -72q115 72 287 72q453 0 453 -448v-258h-582v-80q0 -48 39 -81.5t117 -33.5q82 0 148.5 13.5t172.5 56.5l80 -232q-159 -108 -420 -108zM1126 891q-137 0 -137 -164v-37h273v37q0 164 -136 164z" />
    <glyph glyph-name="ccedilla" unicode="&#xe7;" horiz-adv-x="995" 
d="M401 0q-162 35 -245.5 149.5t-83.5 290.5v258q0 214 120 335.5t351 121.5q294 0 424 -248l-230 -164q-41 68 -84.5 97.5t-101.5 29.5q-72 0 -112 -45.5t-40 -122.5v-266q0 -77 40 -122.5t112 -45.5q55 0 100 27.5t92 99.5l234 -159q-72 -116 -163.5 -179.5t-227.5 -70.5
l-17 -62q90 8 154.5 -37t64.5 -139q0 -111 -66.5 -165t-180.5 -54q-109 0 -217 51l41 141q92 -28 155 -28q38 0 52 13t14 40q0 20 -13.5 36.5t-46.5 16.5q-37 0 -77 -12l-62 61z" />
    <glyph glyph-name="egrave" unicode="&#xe8;" horiz-adv-x="1044" 
d="M72 406v301q0 214 114.5 331t343.5 117q453 0 453 -448v-258h-582v-80q0 -51 37 -83t119 -32t149 13.5t173 56.5l79 -232q-159 -108 -419 -108q-230 0 -348.5 111.5t-118.5 310.5zM539 891q-138 0 -138 -164v-37h273v37q0 164 -135 164zM240 1653h329l109 -391h-225z" />
    <glyph glyph-name="eacute" unicode="&#xe9;" horiz-adv-x="1044" 
d="M72 406v301q0 214 114.5 331t343.5 117q453 0 453 -448v-258h-582v-80q0 -51 37 -83t119 -32t149 13.5t173 56.5l79 -232q-159 -108 -419 -108q-230 0 -348.5 111.5t-118.5 310.5zM539 891q-138 0 -138 -164v-37h273v37q0 164 -135 164zM498 1653h329l-213 -391h-225z
" />
    <glyph glyph-name="ecircumflex" unicode="&#xea;" horiz-adv-x="1044" 
d="M72 406v301q0 214 114.5 331t343.5 117q453 0 453 -448v-258h-582v-80q0 -51 37 -83t119 -32t149 13.5t173 56.5l79 -232q-159 -108 -419 -108q-230 0 -348.5 111.5t-118.5 310.5zM539 891q-138 0 -138 -164v-37h273v37q0 164 -135 164zM682 1262l-147 163l-148 -163
h-211l248 391h219l248 -391h-209z" />
    <glyph glyph-name="edieresis" unicode="&#xeb;" horiz-adv-x="1044" 
d="M72 406v301q0 214 114.5 331t343.5 117q453 0 453 -448v-258h-582v-80q0 -51 37 -83t119 -32t149 13.5t173 56.5l79 -232q-159 -108 -419 -108q-230 0 -348.5 111.5t-118.5 310.5zM539 891q-138 0 -138 -164v-37h273v37q0 164 -135 164zM195 1268v280h274v-280h-274z
M600 1268v280h274v-280h-274z" />
    <glyph glyph-name="igrave" unicode="&#xec;" horiz-adv-x="552" 
d="M113 0v1139h327v-1139h-327zM-10 1653h329l109 -391h-225z" />
    <glyph glyph-name="iacute" unicode="&#xed;" horiz-adv-x="552" 
d="M113 0v1139h327v-1139h-327zM240 1653h329l-213 -391h-225z" />
    <glyph glyph-name="icircumflex" unicode="&#xee;" horiz-adv-x="552" 
d="M113 0v1139h327v-1139h-327zM426 1262l-147 163l-148 -163h-211l248 391h219l248 -391h-209z" />
    <glyph glyph-name="idieresis" unicode="&#xef;" horiz-adv-x="552" 
d="M113 0v1139h327v-1139h-327zM-57 1268v280h274v-280h-274zM348 1268v280h275v-280h-275z" />
    <glyph glyph-name="eth" unicode="&#xf0;" horiz-adv-x="1118" 
d="M545 -16q-233 0 -352 118t-119 330v78q0 216 119 336.5t352 120.5q84 0 176 -29q0 117 -27 164l-96 -86l-133 143l67 60q-24 4 -59 4q-90 0 -188 -41l-62 209q60 30 140 48.5t145 18.5q126 0 221 -45l131 129l144 -145l-107 -107q63 -78 91 -174.5t28 -232.5v-451
q0 -212 -119 -330t-352 -118zM545 682q-81 0 -112.5 -39.5t-31.5 -134.5v-62q0 -94 32 -136t112 -42q81 0 112 42t31 136v62q0 96 -30.5 135t-112.5 39z" />
    <glyph glyph-name="ntilde" unicode="&#xf1;" horiz-adv-x="1157" 
d="M381 1139l27 -101q127 117 309 117q72 0 129.5 -20.5t96 -56.5t64 -87.5t37 -111.5t11.5 -131v-748h-328v680q0 88 -31.5 126t-93.5 38q-78 0 -162 -68v-776h-327v1139h268zM748 1243q-48 0 -98.5 24.5t-95 49t-77.5 24.5q-56 0 -100 -94l-158 74q86 252 246 252
q48 0 98.5 -24.5t95 -49t76.5 -24.5q45 0 80 57l21 35l157 -72q-53 -141 -109 -196.5t-136 -55.5z" />
    <glyph glyph-name="ograve" unicode="&#xf2;" horiz-adv-x="1085" 
d="M543 870q-80 0 -112 -42t-32 -138v-244q0 -94 32 -136t112 -42q81 0 112 42t31 136v244q0 97 -31 138.5t-112 41.5zM543 -16q-233 0 -352 118t-119 330v266q0 216 119 336.5t352 120.5t352 -120.5t119 -336.5v-266q0 -212 -119 -330t-352 -118zM252 1653h330l108 -391
h-225z" />
    <glyph glyph-name="oacute" unicode="&#xf3;" horiz-adv-x="1085" 
d="M543 870q-80 0 -112 -42t-32 -138v-244q0 -94 32 -136t112 -42q81 0 112 42t31 136v244q0 97 -31 138.5t-112 41.5zM543 -16q-233 0 -352 118t-119 330v266q0 216 119 336.5t352 120.5t352 -120.5t119 -336.5v-266q0 -212 -119 -330t-352 -118zM492 1653h329l-213 -391
h-225z" />
    <glyph glyph-name="ocircumflex" unicode="&#xf4;" horiz-adv-x="1085" 
d="M543 870q-80 0 -112 -42t-32 -138v-244q0 -94 32 -136t112 -42q81 0 112 42t31 136v244q0 97 -31 138.5t-112 41.5zM543 -16q-233 0 -352 118t-119 330v266q0 216 119 336.5t352 120.5t352 -120.5t119 -336.5v-266q0 -212 -119 -330t-352 -118zM694 1262l-147 163
l-148 -163h-211l248 391h219l248 -391h-209z" />
    <glyph glyph-name="otilde" unicode="&#xf5;" horiz-adv-x="1085" 
d="M543 870q-80 0 -112 -42t-32 -138v-244q0 -94 32 -136t112 -42q81 0 112 42t31 136v244q0 97 -31 138.5t-112 41.5zM543 -16q-233 0 -352 118t-119 330v266q0 216 119 336.5t352 120.5t352 -120.5t119 -336.5v-266q0 -212 -119 -330t-352 -118zM690 1243q-48 0 -98 24.5
t-94.5 49t-77.5 24.5q-57 0 -101 -94l-157 74q86 252 246 252q48 0 98.5 -24.5t95 -49t76.5 -24.5q45 0 80 57l20 35l158 -72q-53 -141 -109 -196.5t-137 -55.5z" />
    <glyph glyph-name="odieresis" unicode="&#xf6;" horiz-adv-x="1085" 
d="M543 870q-80 0 -112 -42t-32 -138v-244q0 -94 32 -136t112 -42q81 0 112 42t31 136v244q0 97 -31 138.5t-112 41.5zM543 -16q-233 0 -352 118t-119 330v266q0 216 119 336.5t352 120.5t352 -120.5t119 -336.5v-266q0 -212 -119 -330t-352 -118zM209 1268v280h274v-280
h-274zM614 1268v280h275v-280h-275z" />
    <glyph glyph-name="divide" unicode="&#xf7;" horiz-adv-x="1046" 
d="M342 977q0 79 42 127.5t138 48.5q97 0 140 -49t43 -127q0 -174 -183 -174q-180 0 -180 174zM342 225q0 79 42 127.5t138 48.5q97 0 140 -49t43 -127q0 -174 -183 -174q-180 0 -180 174zM33 469v266h981v-266h-981z" />
    <glyph glyph-name="oslash" unicode="&#xf8;" horiz-adv-x="1085" 
d="M543 -16q-75 0 -137 12l-31 -80h-180l53 139q-176 109 -176 377v266q0 216 119 336.5t352 120.5q71 0 133 -12l35 90h180l-60 -150q183 -116 183 -385v-266q0 -212 -119 -330t-352 -118zM692 438v293l-182 -469q8 -2 33 -2q81 0 115 42.5t34 135.5zM543 879
q-81 0 -115.5 -43t-34.5 -138v-276l178 455q-8 2 -28 2z" />
    <glyph glyph-name="ugrave" unicode="&#xf9;" horiz-adv-x="1146" 
d="M776 0l-26 100q-126 -116 -310 -116q-72 0 -129.5 20.5t-96 56.5t-64 87.5t-37 111.5t-11.5 131v748h328v-680q0 -88 31.5 -126t93.5 -38q80 0 162 67v777h327v-1139h-268zM293 1653h330l108 -391h-225z" />
    <glyph glyph-name="uacute" unicode="&#xfa;" horiz-adv-x="1146" 
d="M776 0l-26 100q-126 -116 -310 -116q-72 0 -129.5 20.5t-96 56.5t-64 87.5t-37 111.5t-11.5 131v748h328v-680q0 -88 31.5 -126t93.5 -38q80 0 162 67v777h327v-1139h-268zM553 1653h330l-213 -391h-226z" />
    <glyph glyph-name="ucircumflex" unicode="&#xfb;" horiz-adv-x="1146" 
d="M776 0l-26 100q-126 -116 -310 -116q-72 0 -129.5 20.5t-96 56.5t-64 87.5t-37 111.5t-11.5 131v748h328v-680q0 -88 31.5 -126t93.5 -38q80 0 162 67v777h327v-1139h-268zM727 1262l-147 163l-148 -163h-211l248 391h219l248 -391h-209z" />
    <glyph glyph-name="udieresis" unicode="&#xfc;" horiz-adv-x="1146" 
d="M776 0l-26 100q-126 -116 -310 -116q-72 0 -129.5 20.5t-96 56.5t-64 87.5t-37 111.5t-11.5 131v748h328v-680q0 -88 31.5 -126t93.5 -38q80 0 162 67v777h327v-1139h-268zM242 1268v280h274v-280h-274zM647 1268v280h275v-280h-275z" />
    <glyph glyph-name="yacute" unicode="&#xfd;" horiz-adv-x="1073" 
d="M1051 1139l-488 -1553h-313l131 414h-45l-311 1139h344l141 -733h8l184 733h349zM520 1653h330l-213 -391h-225z" />
    <glyph glyph-name="thorn" unicode="&#xfe;" horiz-adv-x="1124" 
d="M440 84v-498h-327v1950h327v-467q46 40 109.5 63t126.5 23q187 0 282 -117.5t95 -332.5v-273q0 -214 -92 -331t-271 -117q-70 0 -138.5 28.5t-111.5 71.5zM440 770v-403q64 -74 146 -74q72 0 105.5 44.5t33.5 135.5v193q0 93 -33.5 136.5t-105.5 43.5q-80 0 -146 -76z
" />
    <glyph glyph-name="ydieresis" unicode="&#xff;" horiz-adv-x="1073" 
d="M1051 1139l-488 -1553h-313l131 414h-45l-311 1139h344l141 -733h8l184 733h349zM197 1268v280h274v-280h-274zM602 1268v280h275v-280h-275z" />
    <glyph glyph-name="Amacron" unicode="&#x100;" horiz-adv-x="1269" 
d="M473 1434h324l454 -1434h-356l-82 281h-356l-82 -281h-357zM524 573h221l-106 416h-8zM334 1593v238h608v-238h-608z" />
    <glyph glyph-name="amacron" unicode="&#x101;" horiz-adv-x="1091" 
d="M989 743v-743h-270l-23 113q-108 -129 -284 -129q-149 0 -246.5 89.5t-97.5 239.5q0 108 48.5 189t133.5 127.5t187.5 69t221.5 22.5v49q0 113 -149 113q-140 0 -320 -84l-86 227q212 129 435 129q225 0 337.5 -106.5t112.5 -305.5zM500 244q56 0 96.5 26t62.5 64v166
q-117 0 -193.5 -40t-76.5 -116q0 -45 29.5 -72.5t81.5 -27.5zM250 1298v238h608v-238h-608z" />
    <glyph glyph-name="Abreve" unicode="&#x102;" horiz-adv-x="1269" 
d="M473 1434h324l454 -1434h-356l-82 281h-356l-82 -281h-357zM524 573h221l-106 416h-8zM637 1538q-74 0 -134.5 17.5t-109 54t-75.5 99.5t-27 149v32h270v-37q0 -98 76 -98t76 98v37h270v-32q0 -86 -27 -149t-75.5 -99.5t-109 -54t-134.5 -17.5z" />
    <glyph glyph-name="abreve" unicode="&#x103;" horiz-adv-x="1091" 
d="M989 743v-743h-270l-23 113q-108 -129 -284 -129q-149 0 -246.5 89.5t-97.5 239.5q0 108 48.5 189t133.5 127.5t187.5 69t221.5 22.5v49q0 113 -149 113q-140 0 -320 -84l-86 227q212 129 435 129q225 0 337.5 -106.5t112.5 -305.5zM500 244q56 0 96.5 26t62.5 64v166
q-117 0 -193.5 -40t-76.5 -116q0 -45 29.5 -72.5t81.5 -27.5zM555 1243q-74 0 -134.5 17.5t-109 54t-75.5 99.5t-27 149v32h270v-36q0 -99 76 -99t76 99v36h270v-32q0 -86 -27 -149t-75.5 -99.5t-109 -54t-134.5 -17.5z" />
    <glyph glyph-name="Aogonek" unicode="&#x104;" horiz-adv-x="1269" 
d="M1030 -471q-108 0 -178 50.5t-70 150.5q0 89 68.5 161t177.5 109h-133l-82 281h-356l-82 -281h-357l455 1434h324l454 -1434q-96 -29 -152.5 -75t-56.5 -105q0 -35 22.5 -54.5t59.5 -19.5q18 0 38 4t31 8l11 4l47 -174q-82 -59 -221 -59zM524 573h221l-106 416h-8z" />
    <glyph glyph-name="aogonek" unicode="&#x105;" horiz-adv-x="1091" 
d="M768 -471q-108 0 -178 50.5t-70 150.5q0 89 68.5 161t177.5 109h-47l-23 113q-108 -129 -284 -129q-149 0 -246.5 89.5t-97.5 239.5q0 108 48.5 189t133.5 127.5t187.5 69t221.5 22.5v49q0 113 -149 113q-140 0 -320 -84l-86 227q212 129 435 129q225 0 337.5 -106.5
t112.5 -305.5v-743q-96 -29 -152.5 -75t-56.5 -105q0 -35 22.5 -54.5t59.5 -19.5q18 0 38 4t31 8l11 4l47 -174q-82 -59 -221 -59zM500 244q56 0 96.5 26t62.5 64v166q-117 0 -193.5 -40t-76.5 -116q0 -45 29.5 -72.5t81.5 -27.5z" />
    <glyph glyph-name="Cacute" unicode="&#x106;" horiz-adv-x="1165" 
d="M84 510v414q0 244 138.5 385t406.5 141q102 0 184 -23.5t141 -68.5t100.5 -99t75.5 -126l-270 -134q-32 71 -83 109.5t-134 38.5q-110 0 -162.5 -67t-52.5 -175v-377q0 -108 53 -174.5t164 -66.5q158 0 223 149l269 -137q-25 -57 -53.5 -102t-71.5 -86t-95 -68t-124 -43
t-160 -16q-268 0 -408.5 141.5t-140.5 384.5zM582 1960h329l-213 -391h-225z" />
    <glyph glyph-name="cacute" unicode="&#x107;" horiz-adv-x="995" 
d="M72 440v258q0 214 120 335.5t351 121.5q294 0 424 -248l-230 -164q-41 68 -84.5 97.5t-101.5 29.5q-72 0 -112 -45.5t-40 -122.5v-266q0 -77 40 -122.5t112 -45.5q55 0 100 27.5t92 99.5l234 -159q-77 -123 -176 -187.5t-252 -64.5q-232 0 -354.5 121.5t-122.5 334.5z
M498 1653h329l-213 -391h-225z" />
    <glyph glyph-name="Ccircumflex" unicode="&#x108;" horiz-adv-x="1165" 
d="M84 510v414q0 244 138.5 385t406.5 141q102 0 184 -23.5t141 -68.5t100.5 -99t75.5 -126l-270 -134q-32 71 -83 109.5t-134 38.5q-110 0 -162.5 -67t-52.5 -175v-377q0 -108 53 -174.5t164 -66.5q158 0 223 149l269 -137q-25 -57 -53.5 -102t-71.5 -86t-95 -68t-124 -43
t-160 -16q-268 0 -408.5 141.5t-140.5 384.5zM786 1569l-147 164l-147 -164h-211l247 391h220l247 -391h-209z" />
    <glyph glyph-name="ccircumflex" unicode="&#x109;" horiz-adv-x="995" 
d="M72 440v258q0 214 120 335.5t351 121.5q294 0 424 -248l-230 -164q-41 68 -84.5 97.5t-101.5 29.5q-72 0 -112 -45.5t-40 -122.5v-266q0 -77 40 -122.5t112 -45.5q55 0 100 27.5t92 99.5l234 -159q-77 -123 -176 -187.5t-252 -64.5q-232 0 -354.5 121.5t-122.5 334.5z
M694 1262l-147 163l-148 -163h-211l248 391h219l248 -391h-209z" />
    <glyph glyph-name="Cdotaccent" unicode="&#x10a;" horiz-adv-x="1165" 
d="M84 510v414q0 244 138.5 385t406.5 141q102 0 184 -23.5t141 -68.5t100.5 -99t75.5 -126l-270 -134q-32 71 -83 109.5t-134 38.5q-110 0 -162.5 -67t-52.5 -175v-377q0 -108 53 -174.5t164 -66.5q158 0 223 149l269 -137q-25 -57 -53.5 -102t-71.5 -86t-95 -68t-124 -43
t-160 -16q-268 0 -408.5 141.5t-140.5 384.5zM475 1550v322h336v-322h-336z" />
    <glyph glyph-name="cdotaccent" unicode="&#x10b;" horiz-adv-x="995" 
d="M72 440v258q0 214 120 335.5t351 121.5q294 0 424 -248l-230 -164q-41 68 -84.5 97.5t-101.5 29.5q-72 0 -112 -45.5t-40 -122.5v-266q0 -77 40 -122.5t112 -45.5q55 0 100 27.5t92 99.5l234 -159q-77 -123 -176 -187.5t-252 -64.5q-232 0 -354.5 121.5t-122.5 334.5z
M385 1255v322h336v-322h-336z" />
    <glyph glyph-name="Ccaron" unicode="&#x10c;" horiz-adv-x="1165" 
d="M84 510v414q0 244 138.5 385t406.5 141q102 0 184 -23.5t141 -68.5t100.5 -99t75.5 -126l-270 -134q-32 71 -83 109.5t-134 38.5q-110 0 -162.5 -67t-52.5 -175v-377q0 -108 53 -174.5t164 -66.5q158 0 223 149l269 -137q-25 -57 -53.5 -102t-71.5 -86t-95 -68t-124 -43
t-160 -16q-268 0 -408.5 141.5t-140.5 384.5zM639 1796l147 164h209l-247 -391h-220l-247 391h211z" />
    <glyph glyph-name="ccaron" unicode="&#x10d;" horiz-adv-x="995" 
d="M72 440v258q0 214 120 335.5t351 121.5q294 0 424 -248l-230 -164q-41 68 -84.5 97.5t-101.5 29.5q-72 0 -112 -45.5t-40 -122.5v-266q0 -77 40 -122.5t112 -45.5q55 0 100 27.5t92 99.5l234 -159q-77 -123 -176 -187.5t-252 -64.5q-232 0 -354.5 121.5t-122.5 334.5z
M543 1489l147 164h209l-248 -391h-219l-248 391h211z" />
    <glyph glyph-name="Dcaron" unicode="&#x10e;" horiz-adv-x="1320" 
d="M131 1434h508q288 0 443 -175t155 -538q0 -338 -152 -529.5t-403 -191.5h-551v1434zM469 1143v-852h143q279 0 279 436q0 83 -12.5 152t-42 131t-86.5 97.5t-138 35.5h-143zM623 1796l147 164h209l-248 -391h-219l-248 391h211z" />
    <glyph glyph-name="dcaron" unicode="&#x10f;" horiz-adv-x="1339" 
d="M684 1055v481h328v-1536h-267l-26 104q-42 -53 -118 -86.5t-152 -33.5q-187 0 -282 117.5t-95 332.5v273q0 214 91.5 331t270.5 117q70 0 138.5 -28.5t111.5 -71.5zM684 369v403q-64 74 -145 74q-72 0 -106 -44.5t-34 -135.5v-193q0 -92 34 -136t106 -44q79 0 145 76z
M1110 1536h322l-138 -444h-223z" />
    <glyph glyph-name="Dcroat" unicode="&#x110;" horiz-adv-x="1343" 
d="M43 590v278h111v566h508q288 0 443 -175t155 -538q0 -338 -152 -529.5t-403 -191.5h-551v590h-111zM492 1143v-275h235v-278h-235v-299h143q278 0 278 436q0 83 -12.5 151.5t-41.5 131t-86 98t-138 35.5h-143z" />
    <glyph glyph-name="dcroat" unicode="&#x111;" horiz-adv-x="1124" 
d="M469 1212v218h215v106h328v-106h137v-218h-137v-1212h-267l-26 104q-42 -53 -118 -86.5t-152 -33.5q-187 0 -282 117.5t-95 332.5v273q0 214 91.5 331t270.5 117q70 0 138.5 -28.5t111.5 -71.5v157h-215zM684 369v403q-64 74 -145 74q-72 0 -106 -44.5t-34 -135.5v-193
q0 -92 34 -136t106 -44q79 0 145 76z" />
    <glyph glyph-name="Emacron" unicode="&#x112;" horiz-adv-x="1120" 
d="M1010 0h-879v1434h879v-291h-539v-266h492v-291h-492v-295h539v-291zM276 1593v238h609v-238h-609z" />
    <glyph glyph-name="emacron" unicode="&#x113;" horiz-adv-x="1044" 
d="M72 406v301q0 214 114.5 331t343.5 117q453 0 453 -448v-258h-582v-80q0 -51 37 -83t119 -32t149 13.5t173 56.5l79 -232q-159 -108 -419 -108q-230 0 -348.5 111.5t-118.5 310.5zM539 891q-138 0 -138 -164v-37h273v37q0 164 -135 164zM231 1298v238h609v-238h-609z" />
    <glyph glyph-name="Ebreve" unicode="&#x114;" horiz-adv-x="1120" 
d="M1010 0h-879v1434h879v-291h-539v-266h492v-291h-492v-295h539v-291zM584 1538q-74 0 -134.5 17.5t-109 54t-75.5 99.5t-27 149v32h270v-37q0 -98 76 -98q75 0 75 98v37h271v-32q0 -86 -27 -149t-75.5 -99.5t-109 -54t-134.5 -17.5z" />
    <glyph glyph-name="ebreve" unicode="&#x115;" horiz-adv-x="1044" 
d="M72 406v301q0 214 114.5 331t343.5 117q453 0 453 -448v-258h-582v-80q0 -51 37 -83t119 -32t149 13.5t173 56.5l79 -232q-159 -108 -419 -108q-230 0 -348.5 111.5t-118.5 310.5zM539 891q-138 0 -138 -164v-37h273v37q0 164 -135 164zM537 1243q-74 0 -135 17.5
t-109.5 54t-75.5 99.5t-27 149v32h271v-36q0 -99 76 -99q75 0 75 99v36h271v-32q0 -86 -27 -149t-75.5 -99.5t-109 -54t-134.5 -17.5z" />
    <glyph glyph-name="Edotaccent" unicode="&#x116;" horiz-adv-x="1120" 
d="M1010 0h-879v1434h879v-291h-539v-266h492v-291h-492v-295h539v-291zM418 1550v322h336v-322h-336z" />
    <glyph glyph-name="edotaccent" unicode="&#x117;" horiz-adv-x="1044" 
d="M72 406v301q0 214 114.5 331t343.5 117q453 0 453 -448v-258h-582v-80q0 -51 37 -83t119 -32t149 13.5t173 56.5l79 -232q-159 -108 -419 -108q-230 0 -348.5 111.5t-118.5 310.5zM539 891q-138 0 -138 -164v-37h273v37q0 164 -135 164zM375 1255v322h336v-322h-336z" />
    <glyph glyph-name="Eogonek" unicode="&#x118;" horiz-adv-x="1120" 
d="M788 -471q-108 0 -177.5 50.5t-69.5 150.5q0 89 68.5 161t176.5 109h-655v1434h879v-291h-539v-266h492v-291h-492v-295h539v-291q-96 -29 -152.5 -75t-56.5 -105q0 -35 22.5 -54.5t59.5 -19.5q18 0 38 4t31 8l11 4l47 -174q-82 -59 -222 -59z" />
    <glyph glyph-name="eogonek" unicode="&#x119;" horiz-adv-x="1044" 
d="M723 -471q-108 0 -178 50.5t-70 150.5q0 155 174 260q-55 -6 -110 -6q-230 0 -348.5 111.5t-118.5 310.5v301q0 214 114.5 331t343.5 117q453 0 453 -448v-258h-582v-80q0 -51 37 -83t119 -32t149 13.5t173 56.5l79 -232q-110 -71 -166.5 -141t-56.5 -131
q0 -35 22.5 -54.5t59.5 -19.5q18 0 38 4t31 8l11 4l47 -174q-82 -59 -221 -59zM539 891q-138 0 -138 -164v-37h273v37q0 164 -135 164z" />
    <glyph glyph-name="Ecaron" unicode="&#x11a;" horiz-adv-x="1120" 
d="M1010 0h-879v1434h879v-291h-539v-266h492v-291h-492v-295h539v-291zM559 1796l148 164h208l-247 -391h-219l-248 391h211z" />
    <glyph glyph-name="ecaron" unicode="&#x11b;" horiz-adv-x="1044" 
d="M72 406v301q0 214 114.5 331t343.5 117q453 0 453 -448v-258h-582v-80q0 -51 37 -83t119 -32t149 13.5t173 56.5l79 -232q-159 -108 -419 -108q-230 0 -348.5 111.5t-118.5 310.5zM539 891q-138 0 -138 -164v-37h273v37q0 164 -135 164zM535 1489l147 164h209l-248 -391
h-219l-248 391h211z" />
    <glyph glyph-name="Gcircumflex" unicode="&#x11c;" 
d="M645 1147q-105 0 -161 -68t-56 -174v-375q0 -109 51.5 -177t161.5 -68q141 0 205 84v190h-248v272h557v-589q-44 -57 -92 -100.5t-111.5 -80.5t-145 -57t-177.5 -20q-268 0 -406.5 142t-138.5 386v412q0 243 140.5 384.5t408.5 141.5q102 0 184 -23.5t141 -68.5t101 -99
t76 -126l-265 -134q-33 70 -85 109t-140 39zM782 1569l-147 164l-148 -164h-211l248 391h219l248 -391h-209z" />
    <glyph glyph-name="gcircumflex" unicode="&#x11d;" horiz-adv-x="1114" 
d="M684 0v115q-43 -43 -112 -72t-138 -29q-179 0 -270.5 117.5t-91.5 331.5v242q0 215 95 332.5t282 117.5q76 0 152 -33.5t118 -87.5l26 105h267v-1092q0 -215 -130.5 -346t-357.5 -131q-115 0 -228 26.5t-187 75.5l84 238q95 -37 161 -49.5t144 -12.5q93 0 139.5 42.5
t46.5 109.5zM684 397v373q-66 76 -145 76q-72 0 -106 -44t-34 -136v-162q0 -91 34 -135.5t106 -44.5q82 0 145 73zM705 1262l-148 163l-147 -163h-211l247 391h220l247 -391h-208z" />
    <glyph glyph-name="Gbreve" unicode="&#x11e;" 
d="M645 1147q-105 0 -161 -68t-56 -174v-375q0 -109 51.5 -177t161.5 -68q141 0 205 84v190h-248v272h557v-589q-44 -57 -92 -100.5t-111.5 -80.5t-145 -57t-177.5 -20q-268 0 -406.5 142t-138.5 386v412q0 243 140.5 384.5t408.5 141.5q102 0 184 -23.5t141 -68.5t101 -99
t76 -126l-265 -134q-33 70 -85 109t-140 39zM637 1538q-74 0 -134.5 17.5t-109 54t-75.5 99.5t-27 149v32h270v-37q0 -98 76 -98t76 98v37h270v-32q0 -86 -27 -149t-75.5 -99.5t-109 -54t-134.5 -17.5z" />
    <glyph glyph-name="gbreve" unicode="&#x11f;" horiz-adv-x="1114" 
d="M684 0v115q-43 -43 -112 -72t-138 -29q-179 0 -270.5 117.5t-91.5 331.5v242q0 215 95 332.5t282 117.5q76 0 152 -33.5t118 -87.5l26 105h267v-1092q0 -215 -130.5 -346t-357.5 -131q-115 0 -228 26.5t-187 75.5l84 238q95 -37 161 -49.5t144 -12.5q93 0 139.5 42.5
t46.5 109.5zM684 397v373q-66 76 -145 76q-72 0 -106 -44t-34 -136v-162q0 -91 34 -135.5t106 -44.5q82 0 145 73zM565 1243q-74 0 -134.5 17.5t-109 54t-75.5 99.5t-27 149v32h270v-36q0 -99 76 -99t76 99v36h270v-32q0 -86 -27 -149t-75.5 -99.5t-109 -54t-134.5 -17.5z
" />
    <glyph glyph-name="Gdotaccent" unicode="&#x120;" 
d="M645 1147q-105 0 -161 -68t-56 -174v-375q0 -109 51.5 -177t161.5 -68q141 0 205 84v190h-248v272h557v-589q-44 -57 -92 -100.5t-111.5 -80.5t-145 -57t-177.5 -20q-268 0 -406.5 142t-138.5 386v412q0 243 140.5 384.5t408.5 141.5q102 0 184 -23.5t141 -68.5t101 -99
t76 -126l-265 -134q-33 70 -85 109t-140 39zM477 1550v322h336v-322h-336z" />
    <glyph glyph-name="gdotaccent" unicode="&#x121;" horiz-adv-x="1114" 
d="M684 0v115q-43 -43 -112 -72t-138 -29q-179 0 -270.5 117.5t-91.5 331.5v242q0 215 95 332.5t282 117.5q76 0 152 -33.5t118 -87.5l26 105h267v-1092q0 -215 -130.5 -346t-357.5 -131q-115 0 -228 26.5t-187 75.5l84 238q95 -37 161 -49.5t144 -12.5q93 0 139.5 42.5
t46.5 109.5zM684 397v373q-66 76 -145 76q-72 0 -106 -44t-34 -136v-162q0 -91 34 -135.5t106 -44.5q82 0 145 73zM401 1255v322h336v-322h-336z" />
    <glyph glyph-name="Gcommaaccent" unicode="&#x122;" 
d="M645 1147q-105 0 -161 -68t-56 -174v-375q0 -109 51.5 -177t161.5 -68q141 0 205 84v190h-248v272h557v-589q-44 -57 -92 -100.5t-111.5 -80.5t-145 -57t-177.5 -20q-268 0 -406.5 142t-138.5 386v412q0 243 140.5 384.5t408.5 141.5q102 0 184 -23.5t141 -68.5t101 -99
t76 -126l-265 -134q-33 70 -85 109t-140 39zM487 -1190v303h304v-225q0 -33 -3.5 -65t-16 -75.5t-33 -80t-57.5 -74t-87 -63.5l-117 127q53 32 83.5 74.5t33.5 78.5h-107zM471 -403v303h303v-226q0 -43 -7 -84.5t-25.5 -94.5t-60.5 -100t-103 -79l-117 127q52 32 83 75
t34 79h-107z" />
    <glyph glyph-name="gcommaaccent" unicode="&#x123;" horiz-adv-x="1114" 
d="M684 0v115q-43 -43 -112 -72t-138 -29q-179 0 -270.5 117.5t-91.5 331.5v242q0 215 95 332.5t282 117.5q76 0 152 -33.5t118 -87.5l26 105h267v-1092q0 -215 -130.5 -346t-357.5 -131q-115 0 -228 26.5t-187 75.5l84 238q95 -37 161 -49.5t144 -12.5q93 0 139.5 42.5
t46.5 109.5zM684 397v373q-66 76 -145 76q-72 0 -106 -44t-34 -136v-162q0 -91 34 -135.5t106 -44.5q82 0 145 73zM678 1565v-303h-303v225q0 43 7 84.5t25.5 94.5t60.5 100t103 79l117 -127q-53 -32 -83.5 -74.5t-33.5 -78.5h107z" />
    <glyph glyph-name="Hcircumflex" unicode="&#x124;" horiz-adv-x="1343" 
d="M872 0v588h-401v-588h-340v1434h340v-553h401v553h340v-1434h-340zM825 1569l-147 164l-148 -164h-211l248 391h219l248 -391h-209z" />
    <glyph glyph-name="hcircumflex" unicode="&#x125;" horiz-adv-x="1165" 
d="M440 1536v-471q121 90 281 90q175 0 258.5 -111t83.5 -296v-748h-328v680q0 87 -33 125.5t-96 38.5q-82 0 -166 -68v-776h-327v1536h327zM420 1638l-148 164l-147 -164h-211l248 392h219l248 -392h-209z" />
    <glyph glyph-name="Hbar" unicode="&#x126;" horiz-adv-x="1343" 
d="M18 1030v238h113v166h340v-166h401v166h340v-166h113v-238h-113v-1030h-340v588h-401v-588h-340v1030h-113zM471 881h401v149h-401v-149z" />
    <glyph glyph-name="hbar" unicode="&#x127;" horiz-adv-x="1165" 
d="M440 1536v-111h222v-223h-222v-137q121 90 281 90q175 0 258.5 -111t83.5 -296v-748h-328v680q0 87 -33 125.5t-96 38.5q-82 0 -166 -68v-776h-327v1202h-133v223h133v111h327z" />
    <glyph glyph-name="Itilde" unicode="&#x128;" horiz-adv-x="602" 
d="M131 0v1434h340v-1434h-340zM451 1550q-48 0 -98.5 25t-95 49.5t-77.5 24.5q-55 0 -100 -95l-158 74q86 252 246 252q48 0 98.5 -24.5t95 -49t76.5 -24.5q45 0 80 57l21 35l157 -72q-53 -141 -109 -196.5t-136 -55.5z" />
    <glyph glyph-name="itilde" unicode="&#x129;" horiz-adv-x="552" 
d="M113 0v1139h327v-1139h-327zM426 1243q-48 0 -98 24.5t-94.5 49t-77.5 24.5q-57 0 -101 -94l-157 74q86 252 245 252q48 0 99 -24.5t95.5 -49t76.5 -24.5q45 0 80 57l20 35l158 -72q-53 -141 -109 -196.5t-137 -55.5z" />
    <glyph glyph-name="Imacron" unicode="&#x12a;" horiz-adv-x="602" 
d="M131 0v1434h340v-1434h-340zM-2 1593v238h608v-238h-608z" />
    <glyph glyph-name="imacron" unicode="&#x12b;" horiz-adv-x="552" 
d="M113 0v1139h327v-1139h-327zM-18 1298v238h608v-238h-608z" />
    <glyph glyph-name="Ibreve" unicode="&#x12c;" horiz-adv-x="602" 
d="M131 0v1434h340v-1434h-340zM307 1538q-74 0 -134.5 17.5t-109 54t-75.5 99.5t-27 149v32h270v-37q0 -98 76 -98t76 98v37h270v-32q0 -86 -27 -149t-75.5 -99.5t-109 -54t-134.5 -17.5z" />
    <glyph glyph-name="ibreve" unicode="&#x12d;" horiz-adv-x="552" 
d="M113 0v1139h327v-1139h-327zM285 1243q-74 0 -134.5 17.5t-109 54t-75.5 99.5t-27 149v32h270v-36q0 -99 76 -99q75 0 75 99v36h271v-32q0 -86 -27 -149t-75.5 -99.5t-109 -54t-134.5 -17.5z" />
    <glyph glyph-name="Iogonek" unicode="&#x12e;" horiz-adv-x="602" 
d="M131 0v1434h340v-1434h-94q-101 -58 -150 -107t-49 -110q0 -35 22.5 -55.5t59.5 -20.5q58 0 154 37l57 -170q-153 -84 -289 -84q-121 0 -192.5 50.5t-71.5 152.5q0 98 82 183t209 124h-78z" />
    <glyph glyph-name="iogonek" unicode="&#x12f;" horiz-adv-x="552" 
d="M113 0v1139h327v-1139h-92q-101 -57 -149.5 -106.5t-48.5 -110.5q0 -35 22 -55.5t59 -20.5q58 0 154 37l57 -170q-153 -84 -288 -84q-121 0 -193 50.5t-72 152.5q0 98 82 183t209 124h-67zM106 1255v322h340v-322h-340z" />
    <glyph glyph-name="Idotaccent" unicode="&#x130;" horiz-adv-x="602" 
d="M131 0v1434h340v-1434h-340zM133 1550v322h336v-322h-336z" />
    <glyph glyph-name="dotlessi" unicode="&#x131;" horiz-adv-x="552" 
d="M113 0v1139h327v-1139h-327z" />
    <glyph glyph-name="IJ" unicode="&#x132;" horiz-adv-x="1472" 
d="M131 0v1434h340v-1434h-340zM1341 1434v-928q0 -95 -9.5 -166t-39 -141.5t-79.5 -115t-135 -72t-201 -27.5q-109 0 -234 41l23 276q132 -18 180 -18q95 0 125 51t30 168v932h340z" />
    <glyph glyph-name="ij" unicode="&#x133;" horiz-adv-x="1105" 
d="M113 0v1139h327v-1139h-327zM109 1255v322h335v-322h-335zM676 -41v1180h328v-1166q0 -90 -19 -159.5t-61.5 -124t-117 -83t-177.5 -28.5q-159 0 -275 64l78 241q68 -20 152 -20q44 0 68 25t24 71zM672 1255v322h336v-322h-336z" />
    <glyph glyph-name="Jcircumflex" unicode="&#x134;" horiz-adv-x="870" 
d="M739 1434v-928q0 -95 -10 -166.5t-39.5 -141.5t-79.5 -114.5t-135 -72t-201 -27.5q-108 0 -233 41l22 276q132 -18 181 -18q95 0 125 51t30 168v932h340zM717 1569l-148 164l-147 -164h-211l248 391h219l248 -391h-209z" />
    <glyph glyph-name="jcircumflex" unicode="&#x135;" horiz-adv-x="552" 
d="M123 -41v1180h328v-1166q0 -90 -19 -159.5t-61.5 -124t-117 -83t-177.5 -28.5q-159 0 -275 64l78 241q68 -20 152 -20q44 0 68 25t24 71zM432 1262l-147 163l-148 -163h-211l248 391h219l248 -391h-209z" />
    <glyph glyph-name="Kcommaaccent" unicode="&#x136;" horiz-adv-x="1220" 
d="M471 1434v-543h64l282 543h371l-379 -672l399 -762h-370l-303 596h-64v-596h-340v1434h340zM469 -403v303h303v-226q0 -33 -3.5 -65t-16 -75.5t-33 -80t-57.5 -74t-87 -63.5l-116 127q52 32 82.5 74.5t33.5 79.5h-106z" />
    <glyph glyph-name="kcommaaccent" unicode="&#x137;" horiz-adv-x="1060" 
d="M1047 1139l-279 -518l285 -621h-377l-184 475h-52v-475h-327v1536h327v-791h49l187 394h371zM395 -403v303h303v-226q0 -43 -7 -84.5t-25.5 -94.5t-60.5 -100t-103 -79l-117 127q52 32 83 75t34 79h-107z" />
    <glyph glyph-name="kgreenlandic" unicode="&#x138;" horiz-adv-x="1060" 
d="M1047 1139l-293 -518l299 -621h-377l-199 475h-37v-475h-327v1139h327v-394h35l201 394h371z" />
    <glyph glyph-name="Lacute" unicode="&#x139;" horiz-adv-x="1064" 
d="M471 1434v-1123h537v-311h-877v1434h340zM281 1948h329l-213 -392h-225z" />
    <glyph glyph-name="lacute" unicode="&#x13a;" horiz-adv-x="542" 
d="M113 0v1536h327v-1536h-327zM209 2003h330l-213 -391h-226z" />
    <glyph glyph-name="Lcommaaccent" unicode="&#x13b;" horiz-adv-x="1064" 
d="M471 1434v-1123h537v-311h-877v1434h340zM393 -403v303h303v-226q0 -43 -7 -84.5t-25.5 -94.5t-60.5 -100t-103 -79l-117 127q52 32 83 75t34 79h-107z" />
    <glyph glyph-name="lcommaaccent" unicode="&#x13c;" horiz-adv-x="542" 
d="M113 0v1536h327v-1536h-327zM125 -403v303h303v-226q0 -33 -3.5 -65t-16 -75.5t-33 -80t-57.5 -74t-87 -63.5l-116 127q52 32 82.5 74.5t33.5 79.5h-106z" />
    <glyph glyph-name="Lcaron" unicode="&#x13d;" horiz-adv-x="1064" 
d="M471 1434v-1123h537v-311h-877v1434h340zM657 1434h322l-137 -445h-224z" />
    <glyph glyph-name="lcaron" unicode="&#x13e;" horiz-adv-x="788" 
d="M113 0v1536h327v-1536h-327zM549 1536h321l-137 -444h-223z" />
    <glyph glyph-name="Ldot" unicode="&#x13f;" horiz-adv-x="1064" 
d="M471 1434v-1123h537v-311h-877v1434h340zM580 588v370h368v-370h-368z" />
    <glyph glyph-name="ldot" unicode="&#x140;" horiz-adv-x="962" 
d="M113 0v1536h327v-1536h-327zM545 582v370h368v-370h-368z" />
    <glyph glyph-name="Lslash" unicode="&#x141;" horiz-adv-x="1144" 
d="M551 1434v-459l307 133v-295l-307 -133v-369h536v-311h-876v532l-131 -55v295l131 55v607h340z" />
    <glyph glyph-name="lslash" unicode="&#x142;" horiz-adv-x="821" 
d="M57 502v297l162 71v666h328v-518l188 86v-297l-188 -86v-721h-328v573z" />
    <glyph glyph-name="Nacute" unicode="&#x143;" horiz-adv-x="1363" 
d="M1253 1434v-1434h-299l-487 786h-8v-786h-328v1434h305l482 -762h8v762h327zM690 1960h330l-213 -391h-225z" />
    <glyph glyph-name="nacute" unicode="&#x144;" horiz-adv-x="1157" 
d="M381 1139l27 -101q127 117 309 117q72 0 129.5 -20.5t96 -56.5t64 -87.5t37 -111.5t11.5 -131v-748h-328v680q0 88 -31.5 126t-93.5 38q-78 0 -162 -68v-776h-327v1139h268zM557 1653h330l-213 -391h-225z" />
    <glyph glyph-name="Ncommaaccent" unicode="&#x145;" horiz-adv-x="1363" 
d="M1253 1434v-1434h-299l-487 786h-8v-786h-328v1434h305l482 -762h8v762h327zM561 -403v303h303v-226q0 -43 -7 -84.5t-25.5 -94.5t-60.5 -100t-103 -79l-117 127q52 32 83 75t34 79h-107z" />
    <glyph glyph-name="ncommaaccent" unicode="&#x146;" horiz-adv-x="1157" 
d="M381 1139l27 -101q127 117 309 117q72 0 129.5 -20.5t96 -56.5t64 -87.5t37 -111.5t11.5 -131v-748h-328v680q0 88 -31.5 126t-93.5 38q-78 0 -162 -68v-776h-327v1139h268zM438 -403v303h303v-226q0 -43 -7 -84.5t-25.5 -94.5t-60.5 -100t-103 -79l-117 127q52 32 83 75
t34 79h-107z" />
    <glyph glyph-name="Ncaron" unicode="&#x147;" horiz-adv-x="1363" 
d="M1253 1434v-1434h-299l-487 786h-8v-786h-328v1434h305l482 -762h8v762h327zM700 1796l148 164h209l-248 -391h-219l-248 391h211z" />
    <glyph glyph-name="ncaron" unicode="&#x148;" horiz-adv-x="1157" 
d="M381 1139l27 -101q127 117 309 117q72 0 129.5 -20.5t96 -56.5t64 -87.5t37 -111.5t11.5 -131v-748h-328v680q0 88 -31.5 126t-93.5 38q-78 0 -162 -68v-776h-327v1139h268zM596 1489l147 164h209l-247 -391h-220l-247 391h211z" />
    <glyph glyph-name="napostrophe" unicode="&#x149;" horiz-adv-x="1157" 
d="M381 1139l27 -101q127 117 309 117q72 0 129.5 -20.5t96 -56.5t64 -87.5t37 -111.5t11.5 -131v-748h-328v680q0 88 -31.5 126t-93.5 38q-78 0 -162 -68v-776h-327v1139h268zM-170 1352v303h303v-225q0 -43 -7 -84.5t-25.5 -94.5t-60.5 -100.5t-103 -79.5l-117 127
q52 32 83 75t34 79h-107z" />
    <glyph glyph-name="Eng" unicode="&#x14a;" horiz-adv-x="1363" 
d="M1253 1434v-1342q0 -95 -10 -166.5t-39.5 -141.5t-79.5 -114.5t-135 -72t-201 -27.5q-108 0 -233 41l23 276q132 -18 180 -18q90 0 121.5 47t33.5 150l-446 720h-8v-786h-328v1434h305l482 -762h8v762h327z" />
    <glyph glyph-name="eng" unicode="&#x14b;" horiz-adv-x="1157" 
d="M727 -41v721q0 88 -31.5 126t-93.5 38q-78 0 -162 -68v-776h-327v1139h268l27 -101q127 117 309 117q72 0 129.5 -20.5t96 -56.5t64 -87.5t37 -111.5t11.5 -131v-775q0 -90 -19 -159.5t-61.5 -124t-117 -83t-177.5 -28.5q-158 0 -274 64l77 241q68 -20 152 -20
q44 0 68 25t24 71z" />
    <glyph glyph-name="Omacron" unicode="&#x14c;" 
d="M629 -16q-269 0 -407 139.5t-138 384.5v416q0 244 138.5 385t406.5 141q266 0 403 -141t137 -385v-416q0 -245 -136.5 -384.5t-403.5 -139.5zM629 285q109 0 153.5 59.5t44.5 185.5v375q0 124 -44.5 183t-153.5 59t-156 -59.5t-47 -182.5v-375q0 -125 46.5 -185
t156.5 -60zM322 1593v238h608v-238h-608z" />
    <glyph glyph-name="omacron" unicode="&#x14d;" horiz-adv-x="1085" 
d="M543 870q-80 0 -112 -42t-32 -138v-244q0 -94 32 -136t112 -42q81 0 112 42t31 136v244q0 97 -31 138.5t-112 41.5zM543 -16q-233 0 -352 118t-119 330v266q0 216 119 336.5t352 120.5t352 -120.5t119 -336.5v-266q0 -212 -119 -330t-352 -118zM242 1298v238h608v-238
h-608z" />
    <glyph glyph-name="Obreve" unicode="&#x14e;" 
d="M629 -16q-269 0 -407 139.5t-138 384.5v416q0 244 138.5 385t406.5 141q266 0 403 -141t137 -385v-416q0 -245 -136.5 -384.5t-403.5 -139.5zM629 285q109 0 153.5 59.5t44.5 185.5v375q0 124 -44.5 183t-153.5 59t-156 -59.5t-47 -182.5v-375q0 -125 46.5 -185
t156.5 -60zM631 1538q-74 0 -134.5 17.5t-109 54t-75.5 99.5t-27 149v32h270v-37q0 -98 76 -98t76 98v37h270v-32q0 -86 -27 -149t-75.5 -99.5t-109 -54t-134.5 -17.5z" />
    <glyph glyph-name="obreve" unicode="&#x14f;" horiz-adv-x="1085" 
d="M543 870q-80 0 -112 -42t-32 -138v-244q0 -94 32 -136t112 -42q81 0 112 42t31 136v244q0 97 -31 138.5t-112 41.5zM543 -16q-233 0 -352 118t-119 330v266q0 216 119 336.5t352 120.5t352 -120.5t119 -336.5v-266q0 -212 -119 -330t-352 -118zM543 1243
q-74 0 -134.5 17.5t-109 54t-75.5 99.5t-27 149v32h270v-36q0 -99 76 -99q75 0 75 99v36h271v-32q0 -86 -27 -149t-75.5 -99.5t-109 -54t-134.5 -17.5z" />
    <glyph glyph-name="Ohungarumlaut" unicode="&#x150;" 
d="M629 -16q-269 0 -407 139.5t-138 384.5v416q0 244 138.5 385t406.5 141q266 0 403 -141t137 -385v-416q0 -245 -136.5 -384.5t-403.5 -139.5zM629 285q109 0 153.5 59.5t44.5 185.5v375q0 124 -44.5 183t-153.5 59t-156 -59.5t-47 -182.5v-375q0 -125 46.5 -185
t156.5 -60zM428 1948h305l-201 -392h-213zM809 1948h305l-201 -392h-213z" />
    <glyph glyph-name="ohungarumlaut" unicode="&#x151;" horiz-adv-x="1085" 
d="M543 870q-80 0 -112 -42t-32 -138v-244q0 -94 32 -136t112 -42q81 0 112 42t31 136v244q0 97 -31 138.5t-112 41.5zM543 -16q-233 0 -352 118t-119 330v266q0 216 119 336.5t352 120.5t352 -120.5t119 -336.5v-266q0 -212 -119 -330t-352 -118zM352 1653h305l-200 -391
h-213zM733 1653h305l-200 -391h-213z" />
    <glyph glyph-name="OE" unicode="&#x152;" horiz-adv-x="1816" 
d="M1706 0h-860v43q-33 -24 -103.5 -41.5t-132.5 -17.5q-260 0 -393 139.5t-133 384.5v416q0 244 133.5 385t392.5 141q69 0 136 -17t98 -42v43h862v-291h-539v-266h492v-291h-492v-295h539v-291zM629 285q109 0 153.5 59.5t44.5 185.5v375q0 124 -44.5 183t-153.5 59
t-156 -59.5t-47 -182.5v-375q0 -125 46.5 -185t156.5 -60z" />
    <glyph glyph-name="oe" unicode="&#x153;" horiz-adv-x="1656" 
d="M543 870q-80 0 -112 -42t-32 -138v-244q0 -94 32 -136t112 -42q81 0 112 42t31 136v244q0 97 -31 138.5t-112 41.5zM1151 891q-137 0 -137 -164v-37h272v37q0 164 -135 164zM1151 -16q-177 0 -305 88q-131 -88 -303 -88q-233 0 -352 118t-119 330v266q0 216 119 336.5
t352 120.5q172 0 303 -88q124 88 297 88q452 0 452 -448v-258h-581v-80q0 -51 36.5 -83t118.5 -32t149 13.5t173 56.5l80 -232q-159 -108 -420 -108z" />
    <glyph glyph-name="Racute" unicode="&#x154;" horiz-adv-x="1216" 
d="M131 1434h467q265 0 405 -113t140 -360q0 -87 -19.5 -158.5t-54 -120t-73.5 -80.5t-85 -53l308 -549h-377l-244 492h-129v-492h-338v1434zM469 1143v-361h135q98 0 147.5 41.5t49.5 137.5q0 103 -52.5 142.5t-164.5 39.5h-115zM567 1960h330l-213 -391h-225z" />
    <glyph glyph-name="racute" unicode="&#x155;" horiz-adv-x="829" 
d="M440 739v-739h-327v1139h270l25 -142q42 70 112.5 114t145.5 44q71 0 147 -37l-61 -301q-60 27 -117 27q-53 0 -105.5 -28.5t-89.5 -76.5zM389 1653h330l-213 -391h-225z" />
    <glyph glyph-name="Rcommaaccent" unicode="&#x156;" horiz-adv-x="1216" 
d="M131 1434h467q265 0 405 -113t140 -360q0 -87 -19.5 -158.5t-54 -120t-73.5 -80.5t-85 -53l308 -549h-377l-244 492h-129v-492h-338v1434zM469 1143v-361h135q98 0 147.5 41.5t49.5 137.5q0 103 -52.5 142.5t-164.5 39.5h-115zM483 -403v303h303v-226q0 -43 -7 -84.5
t-25.5 -94.5t-60.5 -100t-103 -79l-117 127q52 32 83 75t34 79h-107z" />
    <glyph glyph-name="rcommaaccent" unicode="&#x157;" horiz-adv-x="829" 
d="M440 739v-739h-327v1139h270l25 -142q42 70 112.5 114t145.5 44q71 0 147 -37l-61 -301q-60 27 -117 27q-53 0 -105.5 -28.5t-89.5 -76.5zM186 -403v303h303v-226q0 -43 -7 -84.5t-25.5 -94.5t-60.5 -100t-103 -79l-117 127q52 32 83 75t34 79h-107z" />
    <glyph glyph-name="Rcaron" unicode="&#x158;" horiz-adv-x="1216" 
d="M131 1434h467q265 0 405 -113t140 -360q0 -87 -19.5 -158.5t-54 -120t-73.5 -80.5t-85 -53l308 -549h-377l-244 492h-129v-492h-338v1434zM469 1143v-361h135q98 0 147.5 41.5t49.5 137.5q0 103 -52.5 142.5t-164.5 39.5h-115zM573 1796l148 164h209l-248 -391h-219
l-248 391h211z" />
    <glyph glyph-name="rcaron" unicode="&#x159;" horiz-adv-x="829" 
d="M440 739v-739h-327v1139h270l25 -142q42 70 112.5 114t145.5 44q71 0 147 -37l-61 -301q-60 27 -117 27q-53 0 -105.5 -28.5t-89.5 -76.5zM444 1489l148 164h209l-248 -391h-219l-248 391h211z" />
    <glyph glyph-name="Sacute" unicode="&#x15a;" horiz-adv-x="1120" 
d="M541 -16q-251 0 -506 155l117 256q241 -112 399 -112q94 0 141 39t47 98q0 46 -28.5 80t-75 53.5t-106 40.5t-121 39t-121 51t-106 75t-75 112t-28.5 161q0 202 123 310t356 108q249 0 477 -152l-141 -245q-173 102 -322 102q-81 0 -121 -29t-40 -82q0 -33 22.5 -58.5
t61 -43t88.5 -33.5t105 -35t110.5 -41.5t105.5 -58t88.5 -80t61 -112t22.5 -150.5q0 -214 -131.5 -331t-402.5 -117zM539 1960h329l-213 -391h-225z" />
    <glyph glyph-name="sacute" unicode="&#x15b;" horiz-adv-x="954" 
d="M469 -16q-100 0 -211 31t-211 91l70 238q224 -90 352 -90q70 0 98.5 24t28.5 70q0 34 -29 58t-75 39.5t-101.5 30.5t-111 39t-101.5 57.5t-75 93t-29 139.5q0 175 114 262.5t306 87.5q99 0 203 -31t184 -82l-78 -231q-174 82 -307 82q-107 0 -107 -68q0 -32 29 -54
t75 -36.5t101.5 -29t111 -38.5t101.5 -57.5t75 -94t29 -140.5q0 -197 -109.5 -294t-332.5 -97zM440 1653h330l-213 -391h-225z" />
    <glyph glyph-name="Scircumflex" unicode="&#x15c;" horiz-adv-x="1120" 
d="M541 -16q-251 0 -506 155l117 256q241 -112 399 -112q94 0 141 39t47 98q0 46 -28.5 80t-75 53.5t-106 40.5t-121 39t-121 51t-106 75t-75 112t-28.5 161q0 202 123 310t356 108q249 0 477 -152l-141 -245q-173 102 -322 102q-81 0 -121 -29t-40 -82q0 -33 22.5 -58.5
t61 -43t88.5 -33.5t105 -35t110.5 -41.5t105.5 -58t88.5 -80t61 -112t22.5 -150.5q0 -214 -131.5 -331t-402.5 -117zM719 1556l-148 164l-147 -164h-211l248 392h219l248 -392h-209z" />
    <glyph glyph-name="scircumflex" unicode="&#x15d;" horiz-adv-x="954" 
d="M469 -16q-100 0 -211 31t-211 91l70 238q224 -90 352 -90q70 0 98.5 24t28.5 70q0 34 -29 58t-75 39.5t-101.5 30.5t-111 39t-101.5 57.5t-75 93t-29 139.5q0 175 114 262.5t306 87.5q99 0 203 -31t184 -82l-78 -231q-174 82 -307 82q-107 0 -107 -68q0 -32 29 -54
t75 -36.5t101.5 -29t111 -38.5t101.5 -57.5t75 -94t29 -140.5q0 -197 -109.5 -294t-332.5 -97zM643 1262l-147 163l-148 -163h-211l248 391h219l248 -391h-209z" />
    <glyph glyph-name="Scedilla" unicode="&#x15e;" horiz-adv-x="1120" 
d="M592 -14l-17 -62q91 8 155.5 -37t64.5 -139q0 -111 -67 -165t-181 -54q-109 0 -217 51l41 141q92 -28 155 -28q38 0 52 13t14 40q0 20 -13.5 36.5t-46.5 16.5q-37 0 -77 -12l-62 61l10 146q-177 28 -368 145l117 256q241 -112 399 -112q94 0 141 39t47 98q0 46 -28.5 80
t-75 53.5t-106 40.5t-121 39t-121 51t-106 75t-75 112t-28.5 161q0 202 123 310t356 108q249 0 477 -152l-141 -245q-173 102 -322 102q-81 0 -121 -29t-40 -82q0 -33 22.5 -58.5t61 -43t88.5 -33.5t105 -35t110.5 -41.5t105.5 -58t88.5 -80t61 -112t22.5 -150.5
q0 -204 -119.5 -320t-363.5 -126z" />
    <glyph glyph-name="scedilla" unicode="&#x15f;" horiz-adv-x="954" 
d="M911 375q0 -369 -391 -387l-16 -64q90 8 154.5 -37t64.5 -139q0 -111 -67 -165t-181 -54q-109 0 -217 51l41 141q92 -28 156 -28q37 0 51 13t14 40q0 20 -13 36.5t-46 16.5q-38 0 -78 -12l-61 61l10 150q-145 24 -285 108l70 238q224 -90 352 -90q70 0 98.5 24t28.5 70
q0 34 -29 58t-75 39.5t-101.5 30.5t-111 39t-101.5 57.5t-75 93t-29 139.5q0 175 114 262.5t306 87.5q99 0 203 -31t184 -82l-78 -231q-174 82 -307 82q-107 0 -107 -68q0 -32 29 -54t75 -36.5t101.5 -29t111 -38.5t101.5 -57.5t75 -94t29 -140.5z" />
    <glyph glyph-name="Scaron" unicode="&#x160;" horiz-adv-x="1120" 
d="M541 -16q-251 0 -506 155l117 256q241 -112 399 -112q94 0 141 39t47 98q0 46 -28.5 80t-75 53.5t-106 40.5t-121 39t-121 51t-106 75t-75 112t-28.5 161q0 202 123 310t356 108q249 0 477 -152l-141 -245q-173 102 -322 102q-81 0 -121 -29t-40 -82q0 -33 22.5 -58.5
t61 -43t88.5 -33.5t105 -35t110.5 -41.5t105.5 -58t88.5 -80t61 -112t22.5 -150.5q0 -214 -131.5 -331t-402.5 -117zM575 1796l148 164h209l-248 -391h-219l-248 391h211z" />
    <glyph glyph-name="scaron" unicode="&#x161;" horiz-adv-x="954" 
d="M469 -16q-100 0 -211 31t-211 91l70 238q224 -90 352 -90q70 0 98.5 24t28.5 70q0 34 -29 58t-75 39.5t-101.5 30.5t-111 39t-101.5 57.5t-75 93t-29 139.5q0 175 114 262.5t306 87.5q99 0 203 -31t184 -82l-78 -231q-174 82 -307 82q-107 0 -107 -68q0 -32 29 -54
t75 -36.5t101.5 -29t111 -38.5t101.5 -57.5t75 -94t29 -140.5q0 -197 -109.5 -294t-332.5 -97zM477 1489l148 164h209l-248 -391h-219l-248 391h211z" />
    <glyph glyph-name="Tcommaaccent" unicode="&#x162;" horiz-adv-x="1220" 
d="M63 1434h1084v-312h-371v-1122h-127l-18 -76q90 8 154.5 -37t64.5 -139q0 -111 -67 -165t-181 -54q-109 0 -217 51l41 141q92 -28 156 -28q37 0 51 13t14 40q0 20 -13 36.5t-46 16.5q-38 0 -78 -12l-61 61l12 152h-25v1122h-373v312z" />
    <glyph glyph-name="tcommaaccent" unicode="&#x163;" horiz-adv-x="905" 
d="M592 -16l-14 -60q90 8 154.5 -37t64.5 -139q0 -111 -67 -165t-181 -54q-109 0 -217 51l41 141q92 -28 155 -28q38 0 52 13t14 40q0 20 -13 36.5t-46 16.5q-38 0 -78 -12l-62 61l13 166q-193 78 -193 365v498h-178v247l186 15v209l320 32v-241h286v-262h-286v-519
q0 -40 28.5 -63t75.5 -23q66 0 152 27l73 -233q-128 -82 -280 -82z" />
    <glyph glyph-name="Tcaron" unicode="&#x164;" horiz-adv-x="1220" 
d="M63 1434h1084v-312h-371v-1122h-340v1122h-373v312zM610 1796l148 164h209l-248 -391h-219l-248 391h211z" />
    <glyph glyph-name="tcaron" unicode="&#x165;" horiz-adv-x="905" 
d="M590 -16q-103 0 -177.5 28.5t-117 83t-61.5 124t-19 159.5v498h-178v247l186 15v209l320 32v-241h286v-262h-286v-519q0 -40 28.5 -63t75.5 -23q66 0 152 27l73 -233q-128 -82 -282 -82zM668 1673h321l-137 -444h-223z" />
    <glyph glyph-name="Tbar" unicode="&#x166;" horiz-adv-x="1220" 
d="M63 1434h1084v-291h-371v-238h236v-237h-236v-668h-340v668h-231v237h231v238h-373v291z" />
    <glyph glyph-name="tbar" unicode="&#x167;" horiz-adv-x="905" 
d="M55 551v237h160v89h-178v247l186 15v209l320 32v-241h286v-262h-286v-89h241v-237h-241v-193q0 -40 28.5 -63t75.5 -23q66 0 152 27l73 -233q-128 -82 -282 -82q-103 0 -177.5 28.5t-117 83t-61.5 124t-19 159.5v172h-160z" />
    <glyph glyph-name="Utilde" unicode="&#x168;" horiz-adv-x="1310" 
d="M655 -16q-263 0 -398.5 130t-135.5 371v949h340v-930q0 -110 42.5 -166.5t151.5 -56.5t152 56.5t43 166.5v930h340v-949q0 -240 -136 -370.5t-399 -130.5zM803 1550q-48 0 -98.5 25t-95 49.5t-77.5 24.5q-55 0 -100 -95l-158 74q86 252 246 252q48 0 99 -24.5t95.5 -49
t76.5 -24.5q25 0 42.5 13t36.5 44l21 35l158 -72q-53 -141 -109 -196.5t-137 -55.5z" />
    <glyph glyph-name="utilde" unicode="&#x169;" horiz-adv-x="1146" 
d="M776 0l-26 100q-126 -116 -310 -116q-72 0 -129.5 20.5t-96 56.5t-64 87.5t-37 111.5t-11.5 131v748h328v-680q0 -88 31.5 -126t93.5 -38q80 0 162 67v777h327v-1139h-268zM721 1243q-48 0 -98 24.5t-94.5 49t-77.5 24.5q-57 0 -101 -94l-157 74q86 252 245 252
q48 0 99 -24.5t95.5 -49t76.5 -24.5q25 0 42.5 13t36.5 44l21 35l158 -72q-53 -141 -109 -196.5t-137 -55.5z" />
    <glyph glyph-name="Umacron" unicode="&#x16a;" horiz-adv-x="1310" 
d="M655 -16q-263 0 -398.5 130t-135.5 371v949h340v-930q0 -110 42.5 -166.5t151.5 -56.5t152 56.5t43 166.5v930h340v-949q0 -240 -136 -370.5t-399 -130.5zM358 1593v238h609v-238h-609z" />
    <glyph glyph-name="umacron" unicode="&#x16b;" horiz-adv-x="1146" 
d="M776 0l-26 100q-126 -116 -310 -116q-72 0 -129.5 20.5t-96 56.5t-64 87.5t-37 111.5t-11.5 131v748h328v-680q0 -88 31.5 -126t93.5 -38q80 0 162 67v777h327v-1139h-268zM281 1298v238h608v-238h-608z" />
    <glyph glyph-name="Ubreve" unicode="&#x16c;" horiz-adv-x="1310" 
d="M655 -16q-263 0 -398.5 130t-135.5 371v949h340v-930q0 -110 42.5 -166.5t151.5 -56.5t152 56.5t43 166.5v930h340v-949q0 -240 -136 -370.5t-399 -130.5zM668 1538q-74 0 -134.5 17.5t-109 54t-75.5 99.5t-27 149v32h270v-37q0 -98 76 -98q75 0 75 98v37h271v-32
q0 -86 -27 -149t-75.5 -99.5t-109 -54t-134.5 -17.5z" />
    <glyph glyph-name="ubreve" unicode="&#x16d;" horiz-adv-x="1146" 
d="M776 0l-26 100q-126 -116 -310 -116q-72 0 -129.5 20.5t-96 56.5t-64 87.5t-37 111.5t-11.5 131v748h328v-680q0 -88 31.5 -126t93.5 -38q80 0 162 67v777h327v-1139h-268zM580 1243q-74 0 -135 17.5t-109.5 54t-75.5 99.5t-27 149v32h271v-36q0 -99 76 -99q75 0 75 99
v36h271v-32q0 -86 -27 -149t-75.5 -99.5t-109 -54t-134.5 -17.5z" />
    <glyph glyph-name="Uring" unicode="&#x16e;" horiz-adv-x="1310" 
d="M655 -16q-263 0 -398.5 130t-135.5 371v949h340v-930q0 -110 42.5 -166.5t151.5 -56.5t152 56.5t43 166.5v930h340v-949q0 -240 -136 -370.5t-399 -130.5zM408 1763q0 109 71.5 176.5t182.5 67.5t182 -67.5t71 -176.5q0 -108 -71 -174.5t-182 -66.5t-182.5 66.5
t-71.5 174.5zM578 1763q0 -36 22.5 -59t61.5 -23t61 23t22 59t-22 60t-61 24q-40 0 -62 -23.5t-22 -60.5z" />
    <glyph glyph-name="uring" unicode="&#x16f;" horiz-adv-x="1146" 
d="M776 0l-26 100q-126 -116 -310 -116q-72 0 -129.5 20.5t-96 56.5t-64 87.5t-37 111.5t-11.5 131v748h328v-680q0 -88 31.5 -126t93.5 -38q80 0 162 67v777h327v-1139h-268zM328 1468q0 109 71.5 176.5t182.5 67.5t182.5 -67.5t71.5 -176.5q0 -108 -71.5 -174.5
t-182.5 -66.5t-182.5 66.5t-71.5 174.5zM498 1468q0 -36 22.5 -59t61.5 -23t61.5 23t22.5 59t-22.5 60t-61.5 24q-40 0 -62 -23.5t-22 -60.5z" />
    <glyph glyph-name="Uhungarumlaut" unicode="&#x170;" horiz-adv-x="1310" 
d="M655 -16q-263 0 -398.5 130t-135.5 371v949h340v-930q0 -110 42.5 -166.5t151.5 -56.5t152 56.5t43 166.5v930h340v-949q0 -240 -136 -370.5t-399 -130.5zM442 1960h306l-201 -391h-213zM823 1960h305l-200 -391h-213z" />
    <glyph glyph-name="uhungarumlaut" unicode="&#x171;" horiz-adv-x="1146" 
d="M776 0l-26 100q-126 -116 -310 -116q-72 0 -129.5 20.5t-96 56.5t-64 87.5t-37 111.5t-11.5 131v748h328v-680q0 -88 31.5 -126t93.5 -38q80 0 162 67v777h327v-1139h-268zM354 1653h305l-200 -391h-213zM735 1653h305l-200 -391h-213z" />
    <glyph glyph-name="Uogonek" unicode="&#x172;" horiz-adv-x="1310" 
d="M811 -471q-108 0 -178 50.5t-70 150.5q0 69 48 140t118 118q-50 -4 -74 -4q-263 0 -398.5 130t-135.5 371v949h340v-930q0 -110 42.5 -166.5t151.5 -56.5t152 56.5t43 166.5v930h340v-949q0 -273 -174 -403q-100 -75 -146.5 -135.5t-46.5 -120.5q0 -36 22 -58t58 -22
q18 0 38.5 4t32.5 8l11 4l47 -174q-82 -59 -221 -59z" />
    <glyph glyph-name="uogonek" unicode="&#x173;" horiz-adv-x="1146" 
d="M776 0l-26 100q-126 -116 -310 -116q-72 0 -129.5 20.5t-96 56.5t-64 87.5t-37 111.5t-11.5 131v748h328v-680q0 -88 31.5 -126t93.5 -38q80 0 162 67v777h327v-1139q-96 -29 -152 -75t-56 -105q0 -35 22.5 -54.5t59.5 -19.5q18 0 38 4t30 8l11 4l47 -174
q-82 -59 -221 -59q-108 0 -178 50.5t-70 150.5q0 89 68.5 161t177.5 109h-45z" />
    <glyph glyph-name="Wcircumflex" unicode="&#x174;" horiz-adv-x="1820" 
d="M913 780h-8l-188 -780h-336l-340 1434h369l149 -910h8l205 910h275l204 -910h9l149 910h371l-340 -1434h-340zM1061 1569l-148 164l-147 -164h-211l248 391h219l248 -391h-209z" />
    <glyph glyph-name="wcircumflex" unicode="&#x175;" horiz-adv-x="1511" 
d="M618 1139h275l133 -703h8l107 703h346l-285 -1139h-325l-117 504h-8l-121 -504h-322l-282 1139h344l106 -703h8zM905 1262l-147 163l-148 -163h-211l248 391h219l248 -391h-209z" />
    <glyph glyph-name="Ycircumflex" unicode="&#x176;" horiz-adv-x="1306" 
d="M825 0h-344v559l-442 875h379l229 -551h12l232 551h377l-443 -875v-559zM803 1569l-148 164l-147 -164h-211l248 391h219l248 -391h-209z" />
    <glyph glyph-name="ycircumflex" unicode="&#x177;" horiz-adv-x="1073" 
d="M1051 1139l-488 -1553h-313l131 414h-45l-311 1139h344l141 -733h8l184 733h349zM684 1262l-147 163l-148 -163h-211l248 391h219l248 -391h-209z" />
    <glyph glyph-name="Ydieresis" unicode="&#x178;" horiz-adv-x="1306" 
d="M825 0h-344v559l-442 875h379l229 -551h12l232 551h377l-443 -875v-559zM315 1575v280h275v-280h-275zM721 1575v280h274v-280h-274z" />
    <glyph glyph-name="Zacute" unicode="&#x179;" horiz-adv-x="1153" 
d="M119 1434h946v-224l-553 -919h553v-291h-977v227l551 920h-520v287zM553 1960h330l-213 -391h-226z" />
    <glyph glyph-name="zacute" unicode="&#x17a;" horiz-adv-x="1024" 
d="M92 1139h840v-209l-451 -643h475v-287h-890v219l452 641h-426v279zM477 1653h330l-213 -391h-225z" />
    <glyph glyph-name="Zdotaccent" unicode="&#x17b;" horiz-adv-x="1153" 
d="M119 1434h946v-224l-553 -919h553v-291h-977v227l551 920h-520v287zM449 1550v322h335v-322h-335z" />
    <glyph glyph-name="zdotaccent" unicode="&#x17c;" horiz-adv-x="1024" 
d="M92 1139h840v-209l-451 -643h475v-287h-890v219l452 641h-426v279zM367 1255v322h335v-322h-335z" />
    <glyph glyph-name="Zcaron" unicode="&#x17d;" horiz-adv-x="1153" 
d="M119 1434h946v-224l-553 -919h553v-291h-977v227l551 920h-520v287zM612 1796l148 164h209l-248 -391h-219l-248 391h211z" />
    <glyph glyph-name="zcaron" unicode="&#x17e;" horiz-adv-x="1024" 
d="M92 1139h840v-209l-451 -643h475v-287h-890v219l452 641h-426v279zM512 1489l147 164h209l-247 -391h-220l-247 391h211z" />
    <glyph glyph-name="florin" unicode="&#x192;" horiz-adv-x="1105" 
d="M31 -430q-75 0 -150 23t-121 57l90 235q70 -30 162 -30q113 0 129 96l127 797h-176l39 245l180 25l25 121q15 75 36 133.5t55.5 111.5t80 88t111 55.5t147.5 20.5q149 0 278 -73l-114 -244q-68 33 -135 33q-53 0 -85 -30.5t-42 -80.5l-29 -135h268l-43 -270h-268
l-127 -783q-64 -395 -438 -395z" />
    <glyph glyph-name="AEmacron" unicode="&#x1e2;" horiz-adv-x="1710" 
d="M524 573h221l-106 416h-8zM1597 0h-702l-82 281h-356l-82 -281h-359l455 1434h1126v-291h-708l78 -266h583v-291h-491l94 -295h444v-291zM655 1593v238h609v-238h-609z" />
    <glyph glyph-name="aemacron" unicode="&#x1e3;" horiz-adv-x="1632" 
d="M500 244q56 0 96.5 26t62.5 64v166q-117 0 -193.5 -40t-76.5 -116q0 -45 29.5 -72.5t81.5 -27.5zM1126 -16q-275 0 -391 157q-35 -64 -116.5 -110.5t-206.5 -46.5q-149 0 -246.5 89.5t-97.5 239.5q0 108 48.5 189t133.5 127.5t187.5 69t221.5 22.5v49q0 113 -149 113
q-140 0 -320 -84l-86 227q212 129 435 129q182 0 292 -72q115 72 287 72q453 0 453 -448v-258h-582v-80q0 -48 39 -81.5t117 -33.5q82 0 148.5 13.5t172.5 56.5l80 -232q-159 -108 -420 -108zM1126 891q-137 0 -137 -164v-37h273v37q0 164 -136 164zM535 1298v238h608v-238
h-608z" />
    <glyph glyph-name="Aringacute" unicode="&#x1fa;" horiz-adv-x="1269" 
d="M389 1516q0 110 67.5 176.5t178.5 66.5t178.5 -66.5t67.5 -176.5q0 -95 -56 -164l426 -1352h-356l-82 281h-356l-82 -281h-357l426 1352q-55 64 -55 164zM524 573h221l-106 416h-8zM551 1516q0 -36 22.5 -59t61.5 -23t61.5 23t22.5 59t-22.5 59.5t-61.5 23.5
q-40 0 -62 -23t-22 -60zM606 2206h330l-213 -391h-225z" />
    <glyph glyph-name="aringacute" unicode="&#x1fb;" horiz-adv-x="1091" 
d="M571 1950h330l-170 -314q60 -66 60 -168q0 -109 -68 -175t-178 -66t-178 66t-68 175q0 100 55.5 164.5t149.5 75.5zM461 1468q0 -36 22.5 -59t61.5 -23t61.5 23t22.5 59t-22.5 60t-61.5 24q-40 0 -62 -23.5t-22 -60.5zM989 743v-743h-270l-23 113q-108 -129 -284 -129
q-149 0 -246.5 89.5t-97.5 239.5q0 108 48.5 189t133.5 127.5t187.5 69t221.5 22.5v49q0 113 -149 113q-140 0 -320 -84l-86 227q212 129 435 129q225 0 337.5 -106.5t112.5 -305.5zM500 244q56 0 96.5 26t62.5 64v166q-117 0 -193.5 -40t-76.5 -116q0 -45 29.5 -72.5
t81.5 -27.5z" />
    <glyph glyph-name="AEacute" unicode="&#x1fc;" horiz-adv-x="1708" 
d="M524 573h221l-106 416h-8zM1597 0h-702l-82 281h-356l-82 -281h-359l455 1434h1126v-291h-708l78 -266h583v-291h-491l94 -295h444v-291zM825 1960h330l-213 -391h-225z" />
    <glyph glyph-name="aeacute" unicode="&#x1fd;" horiz-adv-x="1632" 
d="M500 244q56 0 96.5 26t62.5 64v166q-117 0 -193.5 -40t-76.5 -116q0 -45 29.5 -72.5t81.5 -27.5zM1126 -16q-275 0 -391 157q-35 -64 -116.5 -110.5t-206.5 -46.5q-149 0 -246.5 89.5t-97.5 239.5q0 108 48.5 189t133.5 127.5t187.5 69t221.5 22.5v49q0 113 -149 113
q-140 0 -320 -84l-86 227q212 129 435 129q182 0 292 -72q115 72 287 72q453 0 453 -448v-258h-582v-80q0 -48 39 -81.5t117 -33.5q82 0 148.5 13.5t172.5 56.5l80 -232q-159 -108 -420 -108zM1126 891q-137 0 -137 -164v-37h273v37q0 164 -136 164zM760 1653h330l-213 -391
h-226z" />
    <glyph glyph-name="Oslashacute" unicode="&#x1fe;" 
d="M629 -16q-97 0 -174 18l-52 -129h-229l86 215q-176 136 -176 420v416q0 244 138.5 385t406.5 141q91 0 168 -18l51 129h229l-86 -218q178 -138 178 -419v-416q0 -245 -136.5 -384.5t-403.5 -139.5zM629 285q109 0 153.5 59.5t44.5 185.5v404l-258 -643q27 -6 60 -6z
M426 905v-401l254 639q-32 4 -51 4q-109 0 -156 -59.5t-47 -182.5zM575 1960h330l-213 -391h-225z" />
    <glyph glyph-name="oslashacute" unicode="&#x1ff;" horiz-adv-x="1085" 
d="M543 -16q-75 0 -137 12l-31 -80h-180l53 139q-176 109 -176 377v266q0 216 119 336.5t352 120.5q71 0 133 -12l35 90h180l-60 -150q183 -116 183 -385v-266q0 -212 -119 -330t-352 -118zM692 438v293l-182 -469q8 -2 33 -2q81 0 115 42.5t34 135.5zM543 879
q-81 0 -115.5 -43t-34.5 -138v-276l178 455q-8 2 -28 2zM492 1653h329l-213 -391h-225z" />
    <glyph glyph-name="Scommaaccent" unicode="&#x218;" horiz-adv-x="1120" 
d="M541 -16q-251 0 -506 155l117 256q241 -112 399 -112q94 0 141 39t47 98q0 46 -28.5 80t-75 53.5t-106 40.5t-121 39t-121 51t-106 75t-75 112t-28.5 161q0 202 123 310t356 108q249 0 477 -152l-141 -245q-173 102 -322 102q-81 0 -121 -29t-40 -82q0 -33 22.5 -58.5
t61 -43t88.5 -33.5t105 -35t110.5 -41.5t105.5 -58t88.5 -80t61 -112t22.5 -150.5q0 -214 -131.5 -331t-402.5 -117zM401 -403v303h304v-226q0 -33 -3.5 -65t-16 -75.5t-33 -80t-57.5 -74t-87 -63.5l-117 127q52 32 83 75t34 79h-107z" />
    <glyph glyph-name="scommaaccent" unicode="&#x219;" horiz-adv-x="954" 
d="M469 -16q-100 0 -211 31t-211 91l70 238q224 -90 352 -90q70 0 98.5 24t28.5 70q0 34 -29 58t-75 39.5t-101.5 30.5t-111 39t-101.5 57.5t-75 93t-29 139.5q0 175 114 262.5t306 87.5q99 0 203 -31t184 -82l-78 -231q-174 82 -307 82q-107 0 -107 -68q0 -32 29 -54
t75 -36.5t101.5 -29t111 -38.5t101.5 -57.5t75 -94t29 -140.5q0 -197 -109.5 -294t-332.5 -97zM338 -403v303h303v-226q0 -33 -3.5 -65t-16 -75.5t-33 -80t-57.5 -74t-87 -63.5l-116 127q52 32 82.5 74.5t33.5 79.5h-106z" />
    <glyph glyph-name="uni021A" unicode="&#x21a;" horiz-adv-x="1220" 
d="M63 1434h1084v-312h-371v-1122h-340v1122h-373v312zM457 -403v303h303v-226q0 -33 -3.5 -65t-16 -75.5t-33 -80t-57.5 -74t-87 -63.5l-117 127q52 32 83 75t34 79h-106z" />
    <glyph glyph-name="uni021B" unicode="&#x21b;" horiz-adv-x="905" 
d="M590 -16q-103 0 -177.5 28.5t-117 83t-61.5 124t-19 159.5v498h-178v247l186 15v209l320 32v-241h286v-262h-286v-519q0 -40 28.5 -63t75.5 -23q66 0 152 27l73 -233q-128 -82 -282 -82zM371 -403v303h303v-226q0 -33 -3.5 -65t-16 -75.5t-33 -80t-57.5 -74t-87 -63.5
l-117 127q52 32 83 75t34 79h-106z" />
    <glyph glyph-name="dotlessj" unicode="&#x237;" horiz-adv-x="552" 
d="M123 -41v1180h328v-1166q0 -90 -19 -159.5t-61.5 -124t-117 -83t-177.5 -28.5q-159 0 -275 64l78 241q68 -20 152 -20q44 0 68 25t24 71z" />
    <glyph glyph-name="circumflex" unicode="&#x2c6;" horiz-adv-x="999" 
d="M647 1262l-147 163l-148 -163h-211l248 391h219l248 -391h-209z" />
    <glyph glyph-name="caron" unicode="&#x2c7;" horiz-adv-x="999" 
d="M500 1489l147 164h209l-248 -391h-219l-248 391h211z" />
    <glyph glyph-name="breve" unicode="&#x2d8;" horiz-adv-x="833" 
d="M416 1243q-74 0 -134.5 17.5t-109 54t-75.5 99.5t-27 149v32h270v-36q0 -99 76 -99t76 99v36h270v-32q0 -86 -27 -149t-75.5 -99.5t-109 -54t-134.5 -17.5z" />
    <glyph glyph-name="dotaccent" unicode="&#x2d9;" horiz-adv-x="471" 
d="M68 1255v322h335v-322h-335z" />
    <glyph glyph-name="ring" unicode="&#x2da;" horiz-adv-x="974" 
d="M233 1468q0 109 71.5 176.5t182.5 67.5t182.5 -67.5t71.5 -176.5q0 -108 -71.5 -174.5t-182.5 -66.5t-182.5 66.5t-71.5 174.5zM403 1468q0 -36 22.5 -59t61.5 -23t61.5 23t22.5 59t-22.5 60t-61.5 24q-40 0 -62 -23.5t-22 -60.5z" />
    <glyph glyph-name="ogonek" unicode="&#x2db;" horiz-adv-x="849" 
d="M438 -471q-108 0 -178 50.5t-70 150.5q0 89 68.5 161t177.5 109h223q-96 -29 -152 -75t-56 -105q0 -35 22 -54.5t59 -19.5q18 0 38 4t31 8l11 4l47 -174q-82 -59 -221 -59z" />
    <glyph glyph-name="tilde" unicode="&#x2dc;" horiz-adv-x="876" 
d="M580 1243q-48 0 -98.5 24.5t-95 49t-77.5 24.5q-56 0 -100 -94l-158 74q86 252 246 252q48 0 98.5 -24.5t95 -49t76.5 -24.5q45 0 80 57l21 35l157 -72q-53 -141 -109 -196.5t-136 -55.5z" />
    <glyph glyph-name="hungarumlaut" unicode="&#x2dd;" horiz-adv-x="894" 
d="M164 1653h305l-201 -391h-213zM545 1653h305l-201 -391h-213z" />
    <glyph glyph-name="Wgrave" unicode="&#x1e80;" horiz-adv-x="1820" 
d="M913 780h-8l-188 -780h-336l-340 1434h369l149 -910h8l205 910h275l204 -910h9l149 910h371l-340 -1434h-340zM625 1960h329l109 -391h-225z" />
    <glyph glyph-name="wgrave" unicode="&#x1e81;" horiz-adv-x="1511" 
d="M618 1139h275l133 -703h8l107 703h346l-285 -1139h-325l-117 504h-8l-121 -504h-322l-282 1139h344l106 -703h8zM461 1653h330l108 -391h-225z" />
    <glyph glyph-name="Wacute" unicode="&#x1e82;" horiz-adv-x="1820" 
d="M913 780h-8l-188 -780h-336l-340 1434h369l149 -910h8l205 910h275l204 -910h9l149 910h371l-340 -1434h-340zM877 1960h329l-213 -391h-225z" />
    <glyph glyph-name="wacute" unicode="&#x1e83;" horiz-adv-x="1511" 
d="M618 1139h275l133 -703h8l107 703h346l-285 -1139h-325l-117 504h-8l-121 -504h-322l-282 1139h344l106 -703h8zM727 1653h330l-213 -391h-226z" />
    <glyph glyph-name="Wdieresis" unicode="&#x1e84;" horiz-adv-x="1820" 
d="M913 780h-8l-188 -780h-336l-340 1434h369l149 -910h8l205 910h275l204 -910h9l149 910h371l-340 -1434h-340zM571 1575v280h275v-280h-275zM977 1575v280h274v-280h-274z" />
    <glyph glyph-name="wdieresis" unicode="&#x1e85;" horiz-adv-x="1511" 
d="M618 1139h275l133 -703h8l107 703h346l-285 -1139h-325l-117 504h-8l-121 -504h-322l-282 1139h344l106 -703h8zM420 1268v280h274v-280h-274zM825 1268v280h275v-280h-275z" />
    <glyph glyph-name="Ygrave" unicode="&#x1ef2;" horiz-adv-x="1306" 
d="M825 0h-344v559l-442 875h379l229 -551h12l232 551h377l-443 -875v-559zM354 1960h330l109 -391h-226z" />
    <glyph glyph-name="ygrave" unicode="&#x1ef3;" horiz-adv-x="1073" 
d="M1051 1139l-488 -1553h-313l131 414h-45l-311 1139h344l141 -733h8l184 733h349zM240 1653h329l109 -391h-225z" />
    <glyph glyph-name="endash" unicode="&#x2013;" horiz-adv-x="1052" 
d="M51 481v279h950v-279h-950z" />
    <glyph glyph-name="emdash" unicode="&#x2014;" horiz-adv-x="1734" 
d="M88 481v279h1557v-279h-1557z" />
    <glyph glyph-name="quoteleft" unicode="&#x2018;" horiz-adv-x="675" 
d="M498 1311v-353h-369v228q0 154 63.5 263.5t208.5 219.5l144 -151q-67 -44 -110 -98t-50 -109h113z" />
    <glyph glyph-name="quoteright" unicode="&#x2019;" horiz-adv-x="675" 
d="M176 1305v352h369v-227q0 -154 -64 -264t-209 -220l-143 152q67 44 110 98t50 109h-113z" />
    <glyph glyph-name="quotesinglbase" unicode="&#x201a;" horiz-adv-x="567" 
d="M100 0v352h369v-227q0 -154 -63.5 -263.5t-208.5 -219.5l-144 151q67 44 110 98t50 109h-113z" />
    <glyph glyph-name="quotedblleft" unicode="&#x201c;" horiz-adv-x="1187" 
d="M496 1311v-353h-369v228q0 154 63.5 263.5t208.5 219.5l144 -151q-67 -44 -110 -98t-50 -109h113zM1012 1311v-353h-369v228q0 154 63.5 263.5t208.5 219.5l144 -151q-67 -44 -110 -98t-50 -109h113z" />
    <glyph glyph-name="quotedblright" unicode="&#x201d;" horiz-adv-x="1187" 
d="M692 1305v352h369v-227q0 -154 -64 -264t-209 -220l-143 152q67 44 110 98t50 109h-113zM176 1305v352h369v-227q0 -154 -64 -264t-209 -220l-143 152q67 44 110 98t50 109h-113z" />
    <glyph glyph-name="quotedblbase" unicode="&#x201e;" horiz-adv-x="1079" 
d="M616 0v352h369v-227q0 -154 -63.5 -263.5t-208.5 -219.5l-144 151q67 44 110 98t50 109h-113zM100 0v352h369v-227q0 -154 -63.5 -263.5t-208.5 -219.5l-144 151q67 44 110 98t50 109h-113z" />
    <glyph glyph-name="dagger" unicode="&#x2020;" horiz-adv-x="1036" 
d="M88 1133l270 -7l-10 383h340l-8 -383l268 7v-289l-270 8l-14 -936h-291l-15 936l-270 -8v289z" />
    <glyph glyph-name="daggerdbl" unicode="&#x2021;" horiz-adv-x="1036" 
d="M358 299l-270 -6v289l270 -9v279l-270 -8v289l270 -7l-10 383h340l-8 -383l268 7v-289l-270 8v-279l270 9v-289l-268 6l8 -383h-340z" />
    <glyph glyph-name="bullet" unicode="&#x2022;" horiz-adv-x="835" 
d="M143 625q0 123 76 198.5t199 75.5t198.5 -75.5t75.5 -198.5t-75.5 -199t-198.5 -76t-199 76t-76 199z" />
    <glyph glyph-name="perthousand" unicode="&#x2030;" horiz-adv-x="2707" 
d="M1372 1493l-502 -1552h-288l501 1552h289zM426 1214q-25 0 -43 -15.5t-18 -43.5v-217q0 -28 18 -43.5t43 -15.5q24 0 41.5 15.5t17.5 43.5v217q0 28 -17.5 43.5t-41.5 15.5zM426 641q-155 0 -243.5 81t-88.5 232v181q0 153 88.5 234t243.5 81q154 0 240 -81t86 -234v-181
q0 -153 -85.5 -233t-240.5 -80zM1532 557q-25 0 -43.5 -15.5t-18.5 -43.5v-217q0 -28 18.5 -44t43.5 -16q23 0 41 16t18 44v217q0 28 -17.5 43.5t-41.5 15.5zM1532 -16q-155 0 -243.5 81t-88.5 232v180q0 153 88.5 234.5t243.5 81.5q154 0 240 -81.5t86 -234.5v-180
q0 -153 -85.5 -233t-240.5 -80zM2288 557q-25 0 -43.5 -15.5t-18.5 -43.5v-217q0 -28 18.5 -44t43.5 -16q23 0 41 16t18 44v217q0 28 -17.5 43.5t-41.5 15.5zM2288 -16q-155 0 -243.5 81t-88.5 232v180q0 153 88.5 234.5t243.5 81.5q154 0 239.5 -81t85.5 -235v-180
q0 -153 -85.5 -233t-239.5 -80z" />
    <glyph glyph-name="guilsinglleft" unicode="&#x2039;" horiz-adv-x="804" 
d="M92 532v160l621 400v-236l-269 -244l269 -243v-236z" />
    <glyph glyph-name="guilsinglright" unicode="&#x203a;" horiz-adv-x="804" 
d="M713 692v-160l-621 -399v236l268 243l-268 244v236z" />
    <glyph glyph-name="fraction" unicode="&#x2044;" horiz-adv-x="815" 
d="M-8 -51l516 1536h315l-516 -1536h-315z" />
    <glyph glyph-name="Euro" unicode="&#x20ac;" horiz-adv-x="1294" 
d="M729 -14q-256 0 -391 123t-135 354v8h-111v205h111v78h-111v204h111v15q0 221 137 349t389 128q247 0 459 -150l-127 -225q-100 47 -171.5 66.5t-154.5 19.5q-94 0 -147 -50t-53 -138v-15h329v-204h-329v-78h329v-205h-329v-8q0 -88 53 -138.5t147 -50.5q84 0 155.5 19
t174.5 67l129 -221q-120 -78 -229.5 -115.5t-235.5 -37.5z" />
    <glyph glyph-name="trademark" unicode="&#x2122;" horiz-adv-x="1546" 
d="M61 1434h588v-181h-188v-581h-207v581h-193v181zM1186 788h-133l-103 232h-8v-348h-188v762h178l180 -381h12l183 381h176v-762h-189v348h-8z" />
    <glyph glyph-name="arrowleft" unicode="&#x2190;" horiz-adv-x="1765" 
d="M88 707l696 669l183 -188l-371 -346h1055v-271h-1055l373 -344l-185 -190z" />
    <glyph glyph-name="arrowup" unicode="&#x2191;" horiz-adv-x="1499" 
d="M80 817l670 696l669 -696l-190 -184l-344 373v-1055h-271v1055l-346 -371z" />
    <glyph glyph-name="arrowright" unicode="&#x2192;" horiz-adv-x="1765" 
d="M981 1376l696 -669l-696 -670l-184 190l372 344h-1054v271h1054l-370 346z" />
    <glyph glyph-name="arrowdown" unicode="&#x2193;" horiz-adv-x="1499" 
d="M750 -74l-670 697l188 182l346 -371v1055h271v-1055l344 373l190 -184z" />
    <glyph glyph-name="minus" unicode="&#x2212;" horiz-adv-x="1046" 
d="M33 485v271h981v-271h-981z" />
    <glyph glyph-name="notequal" unicode="&#x2260;" horiz-adv-x="1042" 
d="M33 717v270h473l47 150h260l-47 -150h248v-270h-332l-61 -193h393v-270h-477l-48 -150h-260l47 150h-243v270h327l62 193h-389z" />
    <glyph glyph-name="commaaccent" unicode="&#xf6c3;" horiz-adv-x="516" 
d="M111 -403v303h303v-226q0 -33 -3.5 -65t-16 -75.5t-33 -80t-57.5 -74t-87 -63.5l-117 127q52 32 83 75t34 79h-106z" />
    <glyph glyph-name="slashedzero" horiz-adv-x="1220" 
d="M610 -16q-129 0 -227 41t-158.5 115t-90.5 170.5t-30 213.5v385q0 117 30 213.5t90.5 171t158.5 115.5t227 41t227 -41t158.5 -115.5t90.5 -171t30 -213.5v-385q0 -117 -30 -213.5t-90.5 -170.5t-158.5 -115t-227 -41zM799 909q0 86 -17 125l-239 -766q24 -6 67 -6
q94 0 141.5 71t47.5 189v387zM422 909v-348l186 608q-93 -1 -139.5 -71t-46.5 -189z" />
    <glyph glyph-name="zero.tab" horiz-adv-x="1230" 
d="M614 1143q-93 0 -130.5 -64.5t-37.5 -187.5v-348q0 -122 37.5 -187t130.5 -65t130.5 65t37.5 187v348q0 123 -37.5 187.5t-130.5 64.5zM614 -16q-129 0 -227 41t-158 115t-90 170.5t-30 213.5v385q0 117 30 213.5t90 171t158 115.5t227 41t227 -41t158.5 -115.5
t90.5 -171t30 -213.5v-385q0 -117 -30 -213.5t-90.5 -170.5t-158.5 -115t-227 -41z" />
    <glyph glyph-name="one.tab" horiz-adv-x="1230" 
d="M115 1237l508 197h233v-1149h242v-285h-905v285h327v811l-301 -115q-8 18 -104 256z" />
    <glyph glyph-name="two.tab" horiz-adv-x="1230" 
d="M596 1450q226 0 356.5 -108t130.5 -298q0 -78 -33.5 -151.5t-86.5 -131.5t-117.5 -111.5t-129 -100t-117.5 -88.5t-86.5 -84.5t-33.5 -81.5h627v-295h-977v217q0 79 34 155.5t88.5 139t120.5 122t132.5 112t121 100t88.5 96t34 90.5q0 60 -47.5 93.5t-127.5 33.5
q-151 0 -327 -110l-140 233q106 78 234 123t256 45z" />
    <glyph glyph-name="three.tab" horiz-adv-x="1230" 
d="M584 276q60 0 101.5 14t61 39.5t27.5 52t8 60.5q0 78 -46.5 121t-137.5 43h-268v264h241q77 0 124.5 36.5t47.5 105.5q0 67 -38.5 106t-120.5 39q-85 0 -172.5 -30t-153.5 -74l-131 235q110 81 239 121.5t248 40.5q225 0 345 -112t120 -302q0 -75 -29.5 -148t-88.5 -124
q80 -57 116.5 -135.5t36.5 -194.5q0 -72 -17 -136t-56.5 -122t-98.5 -100t-150.5 -67t-205.5 -25q-239 0 -488 163l129 238q213 -109 357 -109z" />
    <glyph glyph-name="four.tab" horiz-adv-x="1230" 
d="M999 883v-340h170v-285h-170v-258h-323v258h-617v217l398 959h338l-375 -891h256v340h323z" />
    <glyph glyph-name="five.tab" horiz-adv-x="1232" 
d="M586 276q196 0 196 195q0 87 -53 143t-149 56q-106 0 -236 -72l-174 109l43 727h813v-289h-537l-14 -219q62 24 150 24q123 0 218 -37t153 -103t87 -151.5t29 -187.5q0 -78 -16 -146.5t-55 -132t-97.5 -109t-149.5 -72.5t-206 -27q-128 0 -258 44t-228 122l127 233
q212 -107 357 -107z" />
    <glyph glyph-name="six.tab" horiz-adv-x="1230" 
d="M612 272q85 0 135 53.5t50 157.5q0 203 -185 203q-101 0 -180 -92v-107q0 -105 47.5 -160t132.5 -55zM678 1159q-112 0 -179 -60t-67 -179v-46q97 93 240 93q217 0 339 -128.5t122 -355.5q0 -225 -134 -363t-387 -138q-233 0 -374.5 140.5t-141.5 364.5v367q0 102 21 191
t65 163.5t108.5 127.5t156 82.5t202.5 29.5q246 0 447 -141l-125 -238q-78 47 -145 68.5t-148 21.5z" />
    <glyph glyph-name="seven.tab" horiz-adv-x="1230" 
d="M221 0l522 1141h-628v293h1001v-222l-536 -1212h-359z" />
    <glyph glyph-name="eight.tab" horiz-adv-x="1230" 
d="M614 612q-190 -49 -190 -180q0 -74 52 -118t138 -44t138.5 44t52.5 118q0 131 -191 180zM614 1167q-76 0 -115.5 -33.5t-39.5 -89.5q0 -109 155 -174q156 66 156 174q0 56 -40 89.5t-116 33.5zM614 -16q-243 0 -380.5 118.5t-137.5 321.5q0 108 58.5 193.5t154.5 138.5
q-80 52 -130 128t-50 169q0 177 130 287t355 110t355.5 -110t130.5 -287q0 -93 -50 -169t-130 -128q96 -53 154.5 -138.5t58.5 -193.5q0 -203 -138 -321.5t-381 -118.5z" />
    <glyph glyph-name="nine.tab" horiz-adv-x="1230" 
d="M616 1157q-85 0 -134.5 -53.5t-49.5 -157.5q0 -203 184 -203q102 0 181 93v106q0 105 -48 160t-133 55zM551 270q112 0 179 60.5t67 179.5v45q-96 -92 -240 -92q-217 0 -339 128t-122 355q0 226 134 364t386 138q233 0 375 -141t142 -365v-367q0 -128 -33.5 -234.5
t-100 -187.5t-173.5 -126t-246 -45q-246 0 -447 141l125 237q78 -47 145 -68.5t148 -21.5z" />
    <glyph glyph-name="slashedzero.tab" horiz-adv-x="1230" 
d="M614 -16q-129 0 -227 41t-158 115t-90 170.5t-30 213.5v385q0 117 30 213.5t90 171t158 115.5t227 41t227 -41t158.5 -115.5t90.5 -171t30 -213.5v-385q0 -117 -30 -213.5t-90.5 -170.5t-158.5 -115t-227 -41zM803 909q0 86 -17 125l-239 -766q24 -6 67 -6q94 0 141.5 71
t47.5 189v387zM426 909v-348l186 608q-93 -1 -139.5 -71t-46.5 -189z" />
    <glyph glyph-name="dollar.tab" horiz-adv-x="1230" 
d="M475 -195v187q-194 27 -387 147l117 256q241 -112 399 -112q94 0 141.5 39t47.5 98q0 52 -36.5 88t-95 58t-129 43t-141 51.5t-129 73.5t-95 119t-36.5 179q0 169 88 273t256 133v153h273v-153q166 -29 339 -140l-141 -245q-172 102 -321 102q-81 0 -121.5 -29t-40.5 -82
q0 -33 22.5 -58.5t61 -43t88.5 -33.5t105 -35t110.5 -41.5t105.5 -58t88.5 -80t61 -112t22.5 -150.5q0 -182 -94 -294t-286 -142v-191h-273z" />
    <glyph glyph-name="sterling.tab" horiz-adv-x="1230" 
d="M240 864q-33 101 -33 160q0 90 28.5 163t76.5 121.5t114 81t138 46.5t151 14q228 0 442 -133l-123 -238q-177 82 -307 82q-26 0 -49.5 -3.5t-50 -13.5t-45.5 -27t-32 -47t-13 -69q0 -55 28 -137h453v-270h-391q20 -72 20 -127q0 -106 -76 -176l2 -6h576v-285h-1030v242
q38 17 63 29t57.5 33.5t51 43t32 53t13.5 68.5q0 62 -23 125h-231v244z" />
    <glyph glyph-name="yen.tab" horiz-adv-x="1306" 
d="M217 530v244h156l-334 660h379l229 -551h12l232 551h377l-334 -660h156v-244h-265v-96h265v-244h-265v-190h-344v190h-264v244h264v96h-264z" />
    <glyph glyph-name="Euro.tab" horiz-adv-x="1230" 
d="M711 -14q-256 0 -391.5 123t-135.5 354v8h-110v205h110v78h-110v204h110v15q0 221 137.5 349t389.5 128q246 0 458 -150l-127 -225q-101 47 -171.5 66.5t-153.5 19.5q-94 0 -147.5 -50t-53.5 -138v-15h330v-204h-330v-78h330v-205h-330v-8q0 -88 53.5 -138.5t147.5 -50.5
q84 0 155.5 19t174.5 67l129 -221q-120 -78 -229.5 -115.5t-235.5 -37.5z" />
    <glyph glyph-name="caron.Slovak" horiz-adv-x="681" 
d="M199 1536h321l-137 -444h-223z" />
    </font>
</defs>
</svg>
